<?xml version="1.0"?><svg version="1.2" baseProfile="tiny-ps" viewBox="0 0 150 150" xmlns="http://www.w3.org/2000/svg" xmlns:xlink="http://www.w3.org/1999/xlink"><title>tuamarca</title><g><g fill="#dcd4cd" transform="matrix(.1 0 0 -.1 0 150)"><path d="M0 750V0h1500v1500H0V750z"/></g><g fill="#c0b5ae" transform="matrix(.1 0 0 -.1 0 150)"><path d="M146 1478c11-13 45-52 75-88s59-67 64-69c15-6 65-62 65-72 0-18-18-8-56 29-21 20-32 29-24 19l13-18-13-12-13-12 5 10 6 10-15 14-15 14 6-21 7-21-28-3-28-3 1-17 2-18h-14c-8 0-32 12-54 26l-40 27-7-7-6-6h10c6 0 13-6 16-14l6-15-32 5-32 5-12-19-12-20 22 5 22 6-12-13-12-13 72-48 72-49v-25l-18-3-17-3-55 27-55 28 4 12 5 12-25 23-24 22v-24c0-14 5-30 12-37l11-11-1-37-2-38 13-14 12-15-22 5-23 6V541l59 25 60 24 58 5 58 5-27-12c-32-13-36-25-12-30l17-3-107-39L0 477v-67l27 5 28 6-27-18-28-18V0h370v25l8-10c4-5 15-11 25-11l18-2-6 22-5 21 12-23 11-23 50 3 50 3 29 94c16 51 32 91 35 88s15-2 28 3l23 9-3-32c-1-18-6-62-10-99l-7-68h793l39 23 40 22v177l-15-12-15-12v10c0 5 7 15 15 22l15 12v700l-37-6c-21-4-51-9-68-13l-30-6 13 16 13 15-14 5c-8 3-20 1-28-4s-25-9-39-8h-25l85 28c47 15 95 33 108 40l22 12-1 109c0 61-4 110-7 110-4 0-20-7-37-16l-30-15-17 4-18 5-45-30c-25-17-49-28-52-24-4 3-1 6 6 6h12l-5 9-6 9 38 28c20 16 51 41 67 56 17 16 45 38 62 51l33 22v125h-12c-7 0-26 7-42 15l-30 16-50-48c-28-26-54-52-58-58-19-25-5 10 18 45 27 40 27 63 1 42-7-6-40-15-72-21l-60-9-4 10-3 10-30-29-30-28 21 43 21 42h-95l-34-50-35-51-15 7c-9 3-22 7-29 7h-13l6 26c3 14 8 34 11 44l5 17h-90l-10-37c-5-21-12-53-16-71l-7-32-25 20-26 20H640v-65l-32-2-32-3-8 13-8 12v-33l-20-5-20-5v9c0 5-11 14-25 19s-25 14-25 20v11l-12-7-11-7 6 19 7 19-14-18-13-17-38 55c-21 30-40 53-42 51s12-39 33-82c20-44 41-89 47-101 15-33 3-38-17-8l-17 26-9-6-10-6 6 16 6 15-18-7-17-6 6 16 6 16-13-5-13-5-44 54c-24 29-63 68-86 85l-42 32h-44l19-22zm1119-126-28-27 24 31c13 17 26 30 28 27 3-2-8-16-24-31zm-608-14-5-13-1 19c-1 11 2 17 5 13 3-3 4-12 1-19zm-143-34c9-24 7-28-9-14-17 14-20 30-6 30 5 0 12-7 15-16zm-123-171 14-18-17 14c-17 13-22 21-14 21 2 0 10-8 17-17zm-106-69c26-17 33-34 15-34-6 0-22 7-35 16l-25 16 6 9c7 12 11 12 39-7zM126 958l59-21 115-6 115-6-32-17-32-18h-81v-98l-13-11-14-11-6 7c-4 3-7 31-7 61v54l-70-5-70-5-6 9-5 9 14-6 14-5 11 14 12 14-28 12-27 11 19-14 18-15-21 2c-11 1-22 5-22 9-3 19-5 24-11 34l-7 11 6 7c8 8 1 9 69-16zm1354-56v-9l-52-7c-29-3-65-6-80-6h-28v9c0 12 18 15 98 19l62 3v-9zM137 831c7 0 17-11 24-22l11-21-11 6-11 7v-31H60v13c0 6-3 21-6 33l-6 21 39-2c21-1 43-3 50-4zm183-46v-45h-30v90h30v-45zm100 18c0-28-15-61-24-53-4 5-9 57-7 73 1 4 8 7 16 7h15v-27zm128 15c7-7 12-22 12-35v-23h-10c-5 0-14 9-21 21l-11 21-34-4c-36-4-41 1-22 20l12 12h62l12-12zm113-19 26-32 19 31 18 32h46V720h-30v30c0 37-4 37-35 3l-25-28-30 35-29 35-1-43v-43l-10 6-10 6v109h35l26-31zm241 14 18-16v-37h-28l-5 21-6 22-40-6-41-5 11 19 10 19h62l19-17zm77 10c-3-20 2-23 17-9 8 9 22 16 31 16h15l-4-12c-5-14-57-46-75-47l-13-1v60h15c8 0 14-3 14-7zm349-5c14-14 16-48 3-48-5 0-11 6-14 14l-5 13-31 5-31 4-10-10c-5-5-10-7-10-4 0 4 7 14 16 22l15 16h55l12-12zm-238-43v-15h-30v30h30v-15zm-870-25c0-5-6-10-14-10s-18 5-21 10l-6 10h41v-10zm-70-30v-10h37c49 0 39-6-23-13l-50-6-13 9-14 8 7 11 7 11h49v-10zm706-42 6-10-23 4c-12 1-24 8-26 15l-4 11 21-5c11-3 23-10 26-15zm538-11c25-10 13-21-13-12l-21 6v34l8-11c4-6 16-14 26-17zM133 620c-10-11-21-20-25-20h-8l12 20c7 11 18 20 25 20h13l-17-20zm1255-106c36-3 42-5 42-13 0-5-8-11-18-13l-18-5-40 15-39 16 25 6c14 4 27 4 30 1s11-6 18-7zm-125-80 57-36-6-9-5-9h24l-6-7-7-6-17 15c-10 8-37 25-60 38s-44 29-47 37l-5 13h7c4 0 33-16 65-36zM250 351v-20l-29-20-29-21-21 8-21 7 48 32c57 38 52 37 52 14zm1237-107c-3-3-12-4-19-1l-13 5 19 1c11 1 17-2 13-5z"/></g><g fill="#a79185" transform="matrix(.1 0 0 -.1 0 150)"><path d="M140 1496c0-9 137-165 170-193 19-17 43-45 53-62l18-31h-25c-32 0-56-10-56-23 0-6 12-24 28-41l27-30-40 32c-50 40-68 41-30 2l29-30-36 4-37 5-40 26-40 27-12-4-11-4 36-28 37-28-12-14-11-14h54l39-22c22-12 39-25 39-29 0-16-27-14-58 4l-33 20-26-12-25-11 10-13 11-13-8-12-7-12-34 10c-43 12-40 13-40-6v-15l48-22 47-21 110-6 110-6-37-17-37-17h-80l-3-62-3-61-13-5-12-4-15 34-14 33-1-17c0-9-5-18-11-20l-12-4 17-16c22-22 20-26-11-30l-28-3 3-10 3-10 24 3 25 3v-9c0-5-6-14-13-20l-13-11-22 6c-12 3-56 2-97-2l-75-7v-38l32 5 33 5-20-10-20-10 35 6c19 3 58 6 86 7l50 2-4-23-5-24 34 7c75 15 82 14 29-5-30-11-59-25-65-31l-10-12 28 7 27 6v-8c0-5-25-16-55-26l-54-17-37-34-37-35h96l-23-26-24-25 14-9 15-10H99l20-22 20-21-5-9-5-8h11c18 0 69 29 148 81 39 27 72 48 72 45 0-2-25-23-55-46l-56-43 12-7 11-7-34-27-35-26-24-1-24-1 13-5 13-5-12-14-11-14h34l-12-15c-16-19-15-19 50 6 30 11 63 23 74 26l18 6-10-19c-6-11-31-46-56-78-25-33-45-61-43-62 1-2 19 1 40 6l38 8-6-19-6-19h8c5 0 24 11 43 25s40 25 47 25h13l-32-62c-18-35-34-66-36-70-2-5 5-8 15-8h18l56 93 57 92 12-3c7-2 17 3 21 10 20 32 14-4-11-68-15-39-30-83-34-98l-6-26h76l28 90 28 91 14 12c8 7 22 18 30 26l16 14 9-14 9-14-6-45c-3-25-6-71-7-103l-2-57h228l-6 43c-3 23-9 61-13 85l-7 43 24-3c38-5 45-13 75-93l29-76 45 3 45 3-4 15c-2 8-6 28-9 44l-5 28 24-7c25-8 55-39 64-67l6-18h20c23 0 23 6 5 42l-14 27 13-6 14-5-21 44c-11 23-28 52-37 62l-16 19 15-7 15-7-19 15-20 16h34l57-71 58-70 48-30c46-28 77-37 77-21 0 4-25 39-56 77-31 39-60 78-66 88l-9 18 12 15 12 15 8-13 9-13v25h29l-5 14-6 15 22-6 22-6-7 22-6 21h31v14c0 8-7 17-16 20l-16 6 5 13 4 12-79 58-79 57 6 10 6 10 70-36 70-37 25 12c14 6 34 11 46 11h20l-12 15-12 15 8 1c5 0-29 20-76 45l-85 45 38-6 37-6v22l25-3 24-3-2 10-2 10h-30c-16 1-39 6-50 13l-20 11 23 1h23l5 15 6 15 36-6c51-7 72-14 72-23v-7l35 4 35 4v26l-32 6c-18 3-57 8-85 12l-53 7v8c0 5 7 9 15 9s15 5 15 10v10h40v-10c0-5 15-13 33-18l32-9 18 9 17 9v39h-13c-7 0-25 6-39 12l-26 13 1 17 1 18h12c6 0 16-11 22-25l12-25h30v127l-72 7c-39 3-82 9-95 12l-23 6v29l-22-6c-13-4-31-9-42-12l-19-5 7 11c4 5 34 18 67 27s62 21 66 27l6 10-17-6c-17-7-35-11-93-22l-28-6 15 11c8 5 56 23 106 40s100 38 110 46l19 16-20-7c-11-3-45-8-75-11l-55-4 45 25 45 24 38 1h39l-4 13-5 12-31 3-32 3 5 10c9 13 2 12-56-11l-52-21-15 6-15 5 29 25c31 26 27 32-9 14l-22-10 45 41 45 41-25-7c-25-6-128-64-165-92-28-21 122 125 173 169l42 35-28-2c-51-5-87-15-94-27l-8-12v10c0 6-5 2-11-8l-10-17-24 17-24 18-1 17v17l40 47c23 25 39 48 37 50s-25-3-51-12l-48-16-24 10-24 11-10-12c-6-6-19-23-30-36-30-36-24-18 20 63 42 76 46 86 31 86-5 0-28-32-52-71l-42-71-21-8-21-8-3 9-4 9-19-22-18-23-1 12c0 6 4 23 10 37l9 25-8 6-9 5-16-25c-9-13-16-35-17-47 0-13-5-32-10-43l-9-20 3 33 4 32h-8c-4 0-14-3-23-6l-15-6 7-16 6-17-16 13-17 13-54 6-55 6-5 19-5 19-34-3-33-3-4-40-4-40-6 25-7 25-28 3-27 3-14-11-15-12-15 5-14 6-10-16-9-17 9-23c12-33 4-28-20 12l-20 35h-39l-31 54c-16 30-35 57-41 61l-11 7 31-61c16-34 28-61 26-61s6-21 19-47l23-48-16-4-16-3-31 34c-16 19-64 73-105 121-78 91-160 159-160 133zm1221-229-12-12 7 18c3 10 9 15 12 12s0-11-7-18zm-836-78c9-17 15-33 13-35-3-2-12 12-21 31-21 43-13 47 8 4zm-16-23c-3-3-11 5-18 17l-13 22 18-17c10-10 16-20 13-22zm-129-21c19-19 32-35 29-35s-20 16-39 35-32 35-29 35 20-16 39-35zm-105-145c17-11 26-20 22-20-11 0-67 29-67 35 0 10 16 4 45-15zm932-156c-3-3-12-4-19-1l-13 5 19 1c11 1 17-2 13-5zm-17-50v-14l-27 12c-38 16-37 16-23 33l13 16 18-17c11-10 19-23 19-30zm153 14c9-11 17-28 17-38v-17l-24 4-24 5-6 20-5 21-35-6-36-6v7c1 43 78 50 113 10zM320 780v-50h-27l-7 31c-3 17-6 40-6 50v19h40v-50zm100 4v-45l-17 3-18 3-3 43-3 42h41v-46zm132 29 18-16v-48l-22 3-23 3v40l-28 3-28 3-15-12-14-11v14c0 8 5 19 12 26l12 12h69l19-17zm108-10 22-28 22 28 22 27h52l-3-17c-2-10-4-46-4-81l-1-64-12 4-13 5-5 54-5 54-26-34-27-34-23 32c-12 17-26 31-31 31h-8V678l-15 12-15 12v128h49l21-27zm249 13 12-14-2-61c-1-34-5-61-8-62-3 0-26-3-51-5l-44-5-13 17c-18 25-16 41 7 64l20 20h50v10c0 6-7 13-16 17l-15 6-25-11-24-12v13c0 7 5 18 12 25l12 12h74l11-14zm71 2v-12l12 12c7 7 20 12 30 12h18v-31l-17-6c-10-3-28-17-40-31-27-31-33-27-38 27l-4 41h39v-12zm115-20c-1-13-3-29-4-35l-1-13h-14c-8 0-18 5-21 10l-7 11 16 24c9 14 20 25 25 25h8l-2-22zm-589-41 7-7-9-1c-5 0-20-2-33-5l-24-4 12 14c12 14 35 16 47 3zm912-44c-10-2-28-2-40 0l-23 4h40l40 1-17-5zm-284-12 6-9-20 5c-23 6-26 13-6 13 8 0 17-4 20-9zm-7-27c-3-3-12-4-19-1l-13 5 19 1c11 1 17-2 13-5zM300 462c0-13-12-22-22-16l-8 5 5 10c8 11 25 12 25 1zm680-142c6-11 8-20 6-20-3 0-10 9-16 20s-8 20-6 20c3 0 10-9 16-20zm100-109c0-6-4-12-8-15l-9-5v14c0 8 4 15 9 15 4 0 8-4 8-9zM826 731c-3-5-3-16 0-25l6-16h65l-1 23-1 22-32 3-31 3-6-10zm6 609v-25l5 13c2 6 2 18 0 25l-5 12v-25zm646-417c7-3 16-2 19 1 4 3-2 6-13 5l-19-1 13-5zM0 886c0-9 5-16 10-16 6 0 10 4 10 9 0 6-4 13-10 16l-10 6v-15zm145-11c-22-8-41-15-43-15s-1-4 2-9l6-9h45c24 0 48-3 53-6l10-6 4 25c8 40-9 44-77 20zM78 763c-46-12 3-38 58-31l29 3 3 16 3 15-38 1c-21 1-46-1-55-4zm1312-229c0-10 77-44 98-44h12v28l-29 5c-16 3-40 9-55 13l-26 6v-8zm-30-183c0-22 7-27 83-70l57-32v56l-59 33c-32 17-64 32-70 32h-11v-19z"/></g><g fill="#856559" transform="matrix(.1 0 0 -.1 0 150)"><path d="M1137 1478c-8-13-35-58-61-100l-47-78h-14c-8 0-26-12-41-27l-27-28 16 26 16 26-11 11-11 11 13 31c7 17 10 33 7 36-2 3-12-15-20-40l-16-46h18l-5-15c-3-8-10-13-14-12-5 1-16-7-24-18l-16-20-6 23-6 22h-47l-4-17-5-18-1 33-1 32h-82l-5 21-6 20-31-3-31-3 2-60 2-60-9 25c-4 14-11 37-14 53l-6 27h-60v-31l-10 6c-12 8-13 3 0-29 5-14 7-26 4-26s-10 14-15 30l-11 30h-25l3-35c1-19 6-40 10-47l8-13-17 14c-9 7-17 19-17 26 0 17-31 42-62 50-16 4-28 5-28 3 0-13 44-87 66-113l27-30-17 27c-19 33-20 42-3 31 6-4 16-8 21-8s10-9 11-20c2-11 6-29 11-40l8-20-17 14-17 13v-13l-1-14-15 20c-8 11-19 26-23 34-5 8-17 15-28 16-11 0-26 7-34 13-62 53-84 67-58 36 7-9 18-24 24-34 5-10 16-28 24-41l14-24-30 28c-34 31-49 34-75 10l-19-17 38-40c21-23 32-36 25-30l-13 11-49-5-49-4-33 23-33 23 20-23c11-13 44-39 74-58l54-35-14-9c-8-5-25-9-39-9l-25-1 43-26 43-26-8-7-8-8-65 9c-35 5-69 7-75 5l-10-4 35-15 35-15 48-1h48l-6 9c-3 6-5 10-3 10 2-1 25-7 52-14l48-13-35-16c-19-9-49-17-65-17-17 0-37-3-46-6l-16-6v-49l13 2c6 1 19 1 28 0l15-1v-55l-1-55h-45v-48l13-5 12-4-52-12-51-13-6-13c-8-22 3-24 57-9 29 8 61 13 72 13h20l-70-25c-38-13-74-29-80-35l-10-12 12 7c6 3 30 8 52 10l41 4 5-8 5-7-58-26c-31-14-78-34-104-45-27-12-48-24-48-27v-7l31 7c16 4 72 8 124 8l93 2-4-7c-3-4-31-23-64-43s-65-45-70-56l-10-19 17 7c10 4 51 29 92 56 40 27 70 43 65 36-5-8-9-18-9-24-1-5-6-9-12-8s-28-13-49-32l-39-34 14-1h13l-12-15c-7-8-9-15-6-15 4 0-4-12-18-27-31-33-27-41 9-17 33 22 57 24 73 8l11-12-28-39c-15-21-35-50-45-65l-18-28h70l62 60 61 61 8-5 8-5-64-126C358 56 333 0 337 0s42 54 83 120l75 121 15-4 15-3-2-28-2-29 29 33 30 34v-16c0-9-3-23-6-32l-6-16-9 6-9 5-7-18c-3-10-12-25-19-33l-12-15 1-27 2-28 12-4 12-5 26 77c14 42 29 83 34 90l8 14 28-4 28-3-2-117-2-118h10c5 0 12 4 15 9l6 9h61l60-1 22 23 23 24-4 35c-2 20-6 43-8 51l-5 14-9-14-9-14-7 17c-9 24-8 24 54 19l53-4 16-34c19-39 20-40 51-16l23 18-10 26c-5 14-17 28-25 31l-16 6v38l1 38 17-34c9-19 24-39 33-44l16-10 17 6 16 6v67l-15 21-15 21 18-5c9-2 29-21 44-41 14-20 56-72 92-116l66-78 52-34c29-18 56-34 61-34 9 0-128 179-151 197-8 7-18 10-23 8-4-3-19 9-33 25l-25 31 5 14c6 14 10 16 44 19l15 2-2 11-2 11 37-4 37-4-32 30c-18 16-33 33-33 36v7l45-5 45-6-11 14c-6 8-17 14-23 14s-30 18-54 39l-43 39 30 4c16 2 28 2 26-2-2-3 11-14 30-24l34-18 26 6 27 7-12 14-12 15 5 13 5 13-64 28-64 29 5 8 5 8 33-10c39-11 37-11 37 1 0 5-16 18-36 28l-37 19 57-5 56-4v34l28-6c15-2 45-7 67-10l40-6-21 9c-11 5-55 15-99 22l-78 12-19 19-18 18v49l20 11c11 6 20 15 20 20v9l-15-5-15-6v11c0 6 9 20 20 31l20 20h69l20-26 20-25 11 21 11 20-13 5c-7 3-31 8-53 13l-40 8-50-9c-27-6-51-11-53-13-2-1 2-11 9-23l13-20-7-7-7-7-26 12-26 12-18-6-18-6-6-26c-4-14-10-23-13-19-3 3-12 1-20-5l-13-11v58l13 17 12 18 85 23 84 23-20 11-19 11 18 1c9 0 17 4 17 9s8 12 18 14l17 4-27-2c-16-1-28 1-28 4 0 6 77 37 140 57l25 9-45 5-45 5 45 31c25 16 46 35 47 41l3 12-57-20c-31-10-62-19-70-19h-13v32l-16-6-15-6 5 8c2 4 29 25 60 47 106 76 50 62-66-17-70-47-76-35-10 21l47 41-13 8-12 8 30 29c43 42 37 51-12 17-24-16-55-31-71-34l-27-5 11 13 11 14-15 6c-9 3-21 3-27-1l-10-6v10c0 6 27 39 60 74 56 60 80 96 45 67l-15-12v11c0 21-20 11-59-30l-39-41-30-4-31-3 16 37c8 20 33 70 55 110 22 39 37 72 34 72s-12-10-19-22zm-390-210-5-13v50l5-12c2-7 2-19 0-25zm0-24c-3-3-12-4-19-1l-13 5 19 1c11 1 17-2 13-5zm232-79c-39-54-50-52-18 4l23 41h27l-32-45zm-321 10c-3-3-9 2-12 12l-7 18 12-12c7-7 10-15 7-18zm-295-5c15-12 36-35 49-53l22-32-25 20c-37 30-89 85-80 85 5 0 20-9 34-20zm771-15c-4-8-11-15-16-15h-10l12 15c7 8 14 15 16 15s1-7-2-15zm15-68c-2-1-13-9-24-17l-20-15 14 18c7 9 18 17 24 17s8-1 6-3zm-499-48v-10l-10 6c-5 3-10 11-10 16v10l10-6c6-3 10-11 10-16zm321-2-12-12 7 18c3 10 9 15 12 12s0-11-7-18zm-573-4-18-4 28-25 27-25-42 27c-24 15-43 28-43 29s15 2 33 2h32l-17-4zm89-83c6 0 13-7 17-15 3-8 3-15 0-15-12 0-53 33-59 48l-6 16 19-17c10-9 23-17 29-17zm682-5c-9-8-79-35-79-30 0 7 53 34 69 35 8 0 12-2 10-5zm-160-8c-2-1-13-9-24-17l-20-15 14 18c7 9 18 17 24 17s8-1 6-3zM557 819l13-11-1-67-1-66-5 20c-6 26-31 45-60 45h-24l-9-22-9-23v18l-1 18-9-6-10-5-7 11-7 12 18 14 19 13h58l-5 13-4 12-19-1c-10-1-27-5-36-9l-18-7v43l23 9 22 9 29-4c16-3 35-10 43-16zm355-5 16-15-3-17c-2-9-4-38-4-64l-1-48H814l-12 12c-15 15-15 61 0 76l12 12h66v9c0 5-7 12-16 15l-15 6-19-10c-10-6-23-10-28-10h-10l5 19 5 19 21 10 22 11 25-5c14-3 32-12 42-20zm132 18c7-12-8-32-35-46l-24-11-3-53-3-52h-26l-7 38c-3 20-6 56-6 79v42l35-1c19-1 38 2 42 5 9 9 21 9 27-1zm-623-53-3-50-15 5c-8 3-17 6-19 6s-4 20-4 45v45h45l-4-51zm243 25 22-26 17 26 17 26h60V670h-40v114l-30-34-30-35-25 30-25 30v-46c0-50-5-60-26-52l-14 5v148h51l23-26zm521-90 16-16-12-14-11-14h-42c-22 0-47 4-55 9l-14 9 13 14 13 13 41-3 41-3-15 10-15 11h12c6 0 19-7 28-16zm-790-24 20-8-28-11c-16-6-33-11-38-11h-9v40l18-1c9 0 26-4 37-9zm120-10 6-10-33 1h-33l20 9c27 12 33 12 40 0zm725-50 15-10-10 1c-5 0-19 4-30 9l-20 9h15c8 0 22-4 30-9zm-225-68c-3-3-11 0-18 7l-12 12 18-7c10-3 15-9 12-12zm110-82 6-10h-9c-5 0-17 10-28 21l-19 22 22-12c12-6 25-16 28-21zm-472-25c-3-9-8-14-10-11-3 3-2 9 2 15 9 16 15 13 8-4zm-253 1c0-2-8-10-17-17l-18-14 14 18c13 16 21 21 21 13zm146-103c-8-16-21-37-30-48l-15-20-1 10c0 11 48 85 56 85 2 0-2-12-10-27zm599-3c16-16 24-30 19-30-6 0-23 14-39 30-16 17-24 30-19 30 6 0 23-13 39-30zm-166-24c23-37 26-46 11-46-10 0-40 52-40 70 0 17 8 11 29-24zm-110-26v-15l-9 20c-5 11-9 25-9 30l-1 10 10-15c5-8 9-22 9-30zm-36 424-6-15 11-11 11-11 15 6 16 6v41h-41l-6-16zm-656 735c30-42 113-132 117-128 2 2-27 38-66 79-38 41-61 63-51 49zm123-313c0-2 8-10 18-17l17-14-14 18c-13 16-21 21-21 13zm955-266-6-10h20c11 0 23 5 26 10l6 10h-20c-11 0-23-4-26-10zM130 865c-29-17-30-16 38-18l52-2v35h-32l-33-1-25-14zm1135-74-5-10 21-6 21-7 6 7 6 6-14 9c-19 12-27 12-35 1zM200 781c0-6 5-13 10-16l10-6v15c0 9-4 16-10 16-5 0-10-4-10-9zm70-9v-22h-40v-19l-37-4-38-4 37-1 38-2-12-25-11-25h-48l7 11 7 12-69-7C25 678 0 672 0 661v-8l108 2c59 1 119 5 133 9l27 8 7 55c4 30 4 57 1 61-3 3-6-4-6-16zM85 750l6-10h58l6 10 6 10H79l6-10zm1235-25c-11-30-20-33-13-5l5 20h-13c-24 0-59-12-59-20 0-12 43-37 78-44l32-8v82h-10c-6 0-15-11-20-25zm83-32c9-2 17-9 17-14v-9h28c15 0 33 4 41 9l13 9-8 5c-5 2-31 5-59 5-27-1-42-3-32-5zm47-183c8-5 22-10 30-10h15l-15 10c-8 5-22 10-30 10h-15l15-10zm-70-163c0-11 40-46 68-61l33-17-3 18-3 18-35 22c-31 20-60 30-60 20zm-335-167-40-7 23-2 23-1-6-10-6-10h9c5 0 31-34 58-75s52-75 56-75h8l-9 22c-5 13-21 48-35 78l-26 55 10 3 10 4-14 14c-8 8-16 13-18 13-2-1-21-5-43-9z"/></g><g fill="#653228" transform="matrix(.1 0 0 -.1 0 150)"><path d="M683 1337c-2-4 0-14 7-22l11-13-11-7-11-7 2-21c0-12 0-31-1-42l-1-20-10 20-9 20 3-46 2-46-11-11-12-11-8 32c-4 18-7 38-7 45l1 12h-14c-17 0-17-5-3-32l11-20-10 6c-5 3-20 33-32 66s-27 63-32 66l-10 7 8-24c4-13 8-43 8-66l1-41 8 5 9 5-11-20-11-21 7-18 6-18-23 20-23 20 26-42 26-41-14-6-14-5 5 12 4 12-41 58-41 57h-41l-13 17-12 18-7-7-7-7 21-29c12-17 21-36 21-44v-13l-26 33-25 32h-43l40-42c86-91 83-106-4-25l-56 52 27-33c15-19 27-38 27-43v-10l-22 12-23 11 60-61c33-33 56-61 51-61h-8l13-16c7-9 23-20 35-25 13-4 28-17 34-29l11-20h-11c-7 0-25 14-42 30-16 17-50 44-74 61-24 16-44 34-44 39v8l22-6 21-5-6 10c-3 5-24 22-47 38-42 29-63 28-39-1l14-17-25 12-25 12 25-20c14-11 29-21 33-21h8l-7 12-7 11 11-7 11-7-6-14c-3-8-8-15-12-15-3 0-12-4-20-9l-14-9 38-36 38-36h47v20l25-16 25-16-6-10c-3-5-11-7-18-5-7 3-23-1-37-9-13-7-36-13-51-14-14 0-33-3-42-6l-16-6v-37l22-3 22-3-3-52-2-53h23l-6-16-6-15 18 3 17 3 3 68 3 67h40l6-16 6-16 7 12 7 12 42 5 41 6 21-19 21-19 9 18 10 17h43l27-26 27-26 17 26 17 26h58v-41l26 20 27 21h21c11 0 33-6 48-14l27-14 4 13 5 12h113l-5-14c-4-8-6-19-6-24v-9h-39l-11-19c-5-11-10-38-10-60v-41h-40l-1 58-1 57-8-35-9-35 6-22 5-23h-25c-13 0-38-3-55-6l-30-6-21 21-21 21v-30h-39l-7 46-6 45-29-33-28-33-1 16c0 9-7 22-15 29l-14 12-7-41-7-41-33 3-34 2v20l-8-12-8-13-40-2c-47-1-62 6-74 36l-9 21v-17l-1-17-22-15-22-16h-30c-16 0-56-5-88-12l-58-12v-26h13c6 1 39 7 72 15 70 17 78 18 71 6-3-4-26-14-51-21l-45-12 6-9 5-9 11 6 10 7 8-13 7-12 24 13c13 6 30 18 37 26 8 8 16 12 19 9 9-9-34-42-81-61-27-11-51-26-54-33l-4-12 19-1 18-1-27-10c-16-5-28-13-28-17v-7l40 3c22 2 43 3 47 4 5 1 15 1 23 0l14-1-69-50c-39-28-72-56-74-62l-4-12 29 19c109 70 132 84 159 89l30 6-27-24c-29-26-40-48-13-26l15 12v-9c0-5-5-14-11-20l-11-11-14 5-14 5-6-16c-7-18-34-22-34-5v10l12-7 11-7-7 11-7 12-25-17-25-16 23-11c13-7 24-9 26-5 1 3 14 4 28 1l25-4-16-24c-20-30-19-34 5-34h19l-5-15-6-15h97l27 43c15 23 39 56 53 72l26 30-17-40c-9-22-18-46-21-52l-5-13h34l-6-16c-3-9-9-28-12-42l-5-27 26 29 27 30 13-17 12-17h53v-38l17-13 16-14 4 12 4 12 15-6 14-5v72h19l-2-53-2-52 23-3 22-3v29l15 6 16 6-6 37-6 38 15-40c9-22 16-41 16-42 0-2 14-3 30-3h30v15c0 24 16 17 29-12l12-26 10 10 9 9-15 37-15 37h18l-5 22-5 23 12-15 12-15-7 25c-4 14-9 36-12 50l-6 25 16-14c10-7 17-10 17-6s7 2 15-5 15-18 15-24l-1-11-14 19c-19 26-19 12 0-17l14-22-7-11c-4-6-13-13-20-15l-12-4 28-34 28-34 13 8 13 8-5 35-6 34-17 19-17 19h49l32-29c17-17 32-34 32-38 0-10 32-42 119-120 58-51 59-44 4 24l-34 41-24 6c-14 4-25 10-25 15s-12 24-27 41l-26 32 14 9c8 5 18 9 22 9 5 0-2 14-15 31s-30 41-38 52l-15 21 15-8c8-5 31-21 50-35s38-27 43-27c4-1 8-2 10-4 1-1 15-4 31-6l29-5-56 46c-32 25-57 48-57 51 0 7 38-15 45-26 3-6 12-10 20-10h14l-2 20c-1 12-10 28-20 38l-19 17-28 1-28 2-33 30c-42 39-34 49 14 17l36-25h66l-32 20c-52 31-38 33 20 3 69-37 67-36 67-25 0 5-13 15-30 22-16 7-35 19-42 28l-13 15 21-11 20-11 13 8 12 8-30 12-30 13 5 12 5 13 27-4 27-4-20 15c-30 23-55 49-51 53 2 2 31-2 65-10l61-14v8c0 5-10 9-22 10h-23l20 8 20 8-45 1c-25 0-68 0-96 1l-52 1-26 21-26 20v47c0 26 4 52 8 58 10 15 47 34 69 34 10 1 32 7 48 15l30 14-30-4-30-5 30 14c17 9 36 15 43 16 22 0 12 20-14 26l-27 7 17 9c9 5 16 13 16 19v9l-37-19c-21-10-49-22-63-25l-25-7 25 20c14 11 31 21 38 21 6 0 12 5 12 10 0 6 6 10 14 10s35 9 60 20l46 19v22l-18-10c-20-11-51-12-91-4l-24 4 69 50c90 66 97 85 9 25l-68-46-16 5-17 5-20-15c-28-21-40-18-19 5l18 20h-11c-19 0-14 18 6 25l19 5 11 24 11 24-22-6-22-5 33 35 34 36-12 7-11 7-26-23-26-24 23 40c13 22 35 55 48 73l25 33-7 7-8 7-37-41c-21-22-41-47-44-55l-5-14-10 14-9 13-7-11c-4-6-11-9-15-6l-8 4-31-47c-18-26-41-58-52-72l-20-25v12c0 6 9 33 20 59 23 52 21 64-5 37l-18-18 6 25 6 25-9 15-10 15v-25h-39l-11-17-11-18 4 20c3 11 8 28 12 38l7 17h-30l-5-20c-3-11-10-20-16-20h-11v70h-60v-71l-15-5c-8-3-19-3-26 1l-12 8 17 9 16 9v69h-11c-5 0-8 4-5 8l5 8h-20c-11 0-23-4-26-9zm183-210-14-47 11-1 12-1-12-5c-7-2-13-12-13-21v-16l-14 19-13 18 14 26c7 14 18 39 23 55 17 46 21 24 6-27zm-221-77c8-16 15-35 15-42v-13l-20 33c-19 31-25 52-15 52 2 0 11-13 20-30zm334 21 14-9-22-31c-25-35-37-41-21-11l11 20h-8c-4 0-1 4 7 10l14 9-14 5c-8 2-22 7-30 9l-15 5 25 1c14 0 31-3 39-8zm-449-76c20-24 6-28-15-5l-18 20h10c6 0 16-7 23-15zm130-69c0-5-7-1-15 10-8 10-14 24-14 29 0 6 6 1 14-9 8-11 15-24 15-30zm215 25c-3-6-11-11-17-11h-10l12 15c14 17 26 13 15-4zm265 14c0-2-15-12-32-20l-33-16 24 21c22 19 41 26 41 15zm-130-26c0-3-11-14-24-22l-24-16 11 23 11 23h13c7 0 13-4 13-8zm130-334 25-14h-15c-8 0-24 6-34 14-25 19-9 19 24 0zm-275-15 6-10h-10c-6 0-11 5-11 10 0 6 2 10 4 10 3 0 8-4 11-10zm165-32c0-4-10-8-22-8h-21l6 7 7 6-12 14-11 14 26-12c15-7 27-16 27-21zm-520 13c0-11-25-21-53-21h-21l10 9c8 8 31 16 57 20 4 0 7-3 7-8zm-90-6c0-6-56-35-67-35-4 0 6 9 22 20 29 19 45 25 45 15zm220-15c-6-11-13-20-16-20-2 0 0 9 6 20s13 20 16 20c2 0 0-9-6-20zm346-41 19-22-22 12c-13 6-23 16-23 21 0 15 5 12 26-11zm-331-81c-3-63-14-108-26-108h-10l10 19c6 10 8 21 4 24-3 3-1 20 5 36l11 31-10 5-9 6 10 20c6 10 12 19 14 19s2-24 1-52zm219 36c9-24 7-28-9-14-17 14-20 30-6 30 5 0 12-7 15-16zm-338-21c-10-10-19 5-10 18l8 13 4-13c2-7 1-15-2-18zm-63 2c-3-9-8-14-10-11-3 3-2 9 2 15 9 16 15 13 8-4zm401-156-6-11-9 13c-5 8-9 25-8 39v25l15-28 15-27-7-11zm-77-25c-3-3-12-4-19-1l-13 5 19 1c11 1 17-2 13-5zm93-14c0-5-5-10-11-10h-10l6 10c3 6 8 10 11 10 2 0 4-4 4-10zM598 1289l-5-29h69l-6 23c-3 12-6 25-6 28 0 4-11 7-24 7h-24l-4-29zm-141-29c9-22 20-40 24-40h8l-5 15-6 15h7c4 0 14-8 21-17l13-18-9 34c-10 37-24 51-52 51h-16l15-40zm559 8-18-27 4-13 5-13 17 27 18 27-4 13-5 13-17-27zm145-130-24-29 12-12 12-12 25 28c13 15 24 33 24 38v10l-9-5-9-6-4 8-3 9-24-29zm-754-129c7-7 15-10 18-7s-2 9-12 12l-18 7 12-12zm-159-66c7-3 16-2 19 1 4 3-2 6-13 5l-19-1 13-5zm50 0c7-3 16-2 19 1 4 3-2 6-13 5l-19-1 13-5zm-164-79-19-16 20 7c11 4 34 11 50 15l30 8-31 1-30 1-20-16zm1057-33-13-8 11-7c6-4 11-16 11-27v-19h-10c-6 0-21 7-35 16l-24 15-20-20c-25-25-26-35-5-55l15-16 22 1h22l-20 10-20 9 38-3 37-3v13c0 7 10 18 22 24l23 12-13 5-12 4v37l18 10 17 10-25 1c-14 0-31-4-39-9zm-743-48-18-4v-33l12 12 12 12h56v20l-22-1c-13-1-31-3-40-6zm368-2-6-9h70v18h-29c-17 0-32-4-35-9zm469-1c3-5 8-10 11-10 2 0 4 5 4 10 0 6-5 10-11 10h-10l6-10zM230 716v-26h-25l15-10c8-5 21-10 28-10h13l-3 32-3 31-12 5-13 4v-26zm255 16c-13-9-13-34 0-39 6-1 16 1 24 6l14 9-6 16c-7 17-16 20-32 8zm358 1c-30-11-5-46 25-36l12 5v38l-12-1c-7 0-19-3-25-6zm442-3c3-5 8-10 11-10 2 0 4 5 4 10 0 6-5 10-11 10h-10l6-10zm-1107-7c7-3 16-2 19 1 4 3-2 6-13 5l-19-1 13-5zm115-28v-14l9 5c4 3 8 9 8 15 0 5-4 9-8 9-5 0-9-7-9-15zm1034 8c-12-11-8-23 8-23h15v15c0 16-12 20-23 8zm-131-21-6-10 16-6c23-9 28-2 10 13l-14 12-6-9zM85 670l-6-10h10c5 0 13 5 16 10l6 10h-10c-5 0-13-4-16-10zm35-1v-10l10 6c6 3 10 8 10 11 0 2-4 4-10 4-5 0-10-5-10-11zm50-9-15-10 15 1c8 0 24 4 35 9l20 9h-20c-11 0-27-4-35-9zm5-159-40-19 32 2 32 3 16 17c21 21 9 20-40-3zm1100-31c3-5 13-10 21-10h15l-6 10c-3 6-13 10-21 10h-15l6-10zM436 190c-20-38-34-70-32-70 6 0 75 106 83 127l5 13h-10c-6 0-26-31-46-70zm646-58c18-28 35-49 37-47 6 7-44 88-57 93l-14 4 34-50z"/></g><g fill="#2a0c09" transform="matrix(.1 0 0 -.1 0 150)"><path d="m778 1256-17-13-3-37c-1-21-6-39-10-42l-7-5-7 36-6 35h-38v-40h-20v-70h-12c-24 0-37 16-63 70l-25 55 4-35c2-19 7-46 10-60s4-19 0-12c-3 6-9 12-13 12h-8l5-26 5-27-14 8-14 9 14-17c7-9 21-17 30-17h16l-30-16c-16-8-34-19-39-24l-9-9 13-16 12-15h-21l20-35 21-35h-9c-5 0-15 6-22 13l-14 12 7-12 7-13h-22l7-11 7-11-14-9c-8-5-18-9-24-9h-10l15 11 15 11-25-7c-14-4-35-7-47-7h-22l-5-14-5-13 19-6 19-6 20 13 21 12 45-16 45-17 14 15c8 8 21 13 27 12l13-3-2 48-1 47h10c5 0 14-12 19-26 13-34 13-37-6-30l-17 6 17-24 16-25-6-14-5-14 25-5c14-3 37-3 50-1l24 5-5 21-5 22 15-19 15-20 98-4c55-2 129-4 165-4l65-1 22 19c12 10 39 24 60 30l37 12-22 1c-12 1-30 4-40 7l-18 6 15-12 15-12-18 6c-10 3-21 6-23 6-3 0-2 5 2 12l7 11-19-7c-10-5-28-11-39-14l-20-5 14 16 14 17-19-6-19-6 30 26 30 26h53l12 15 12 15h-32v12c0 6-3 9-6 5-4-3-14 3-23 14l-17 21-13-16c-7-9-19-16-25-16h-12l2 31 2 31-28-27-28-27-5 14-4 13-37-34c-20-19-36-33-36-30 0 2 4 19 10 37l9 34-14-6-15-5v28c0 16 9 50 20 76 25 58 25 67 0 35l-20-25v46l-10-6-10-6v45l-12-12-11-11-2-48c-1-26-6-58-10-70l-7-23h18l19-1-17-13c-10-7-15-16-12-19s-4-10-15-17l-21-11-9 24c-9 23-14 67-12 97l1 15 10-15 10-15-6-20-5-20 15 19c17 22 17 20 20 88l1 46-7-4c-5-3-8-14-8-24s-5-22-12-26l-11-7 6 17 7 17-15 30c-18 33-15 32-37 15zm-124-212 17-37-10-10-11-11-12 12c-7 7-9 12-5 12s1 13-8 30c-18 36-19 40-2 40h13l18-36zm39-14 5-20h-9c-5 0-9 9-9 20s2 20 4 20 6-9 9-20zm138-61 20-10 14 11 13 11 6-9 6-10-19-23c-10-13-21-33-24-44l-5-20-1 32-1 32-15-5-15-6v10c0 6-3 17-6 26l-6 16h7c3 0 15-5 26-11zm205-18-6-16 15 19 15 20 7-7 7-7-10-10c-6-6-21-12-34-15-12-2-30-11-40-20-22-20-30-19-30 6v20l-10-6-10-6v8c0 5 5 14 10 19l10 10 41 1 40 1-5-17zm-144-73-12-12v10c0 14 12 26 19 19 2-3-1-11-7-17zm143 2c-3-5-12-10-18-10h-12l15 10c19 12 23 12 15 0zm-330-28c-2-2-9-1-14 3l-11 6 6 11 7 10 8-13c4-7 6-15 4-17zm412 411c-4-3-7-11-7-17v-10l12 12c6 6 9 14 7 17-3 3-9 2-12-2zm-108-20-14-18 18 14c9 7 17 15 17 17 0 8-8 3-21-13zm52-45-31-32v12c0 7 5 12 12 12h11l-6 7-7 7-20-22c-12-12-24-22-29-22-4 0-17-18-30-40l-22-40h106l53 65c51 63 59 90 12 40l-23-24-8 5-9 5 11 22c7 12 17 25 23 29l11 8h-11c-7 0-26-14-43-32zm-665 14c5-4 20-24 33-44l23-38h-15c-9 0-18 6-20 13l-5 12-1-12c-1-7 15-30 34-52 45-49 44-57-1-26-20 14-46 25-57 25h-20l49-49c27-26 49-55 49-62v-14l38-3 38-3-19 19-20 20v41l-1 41h20c10 0 19 4 19 8 0 12-39 52-50 52-6 0-10 8-10 18v17l-8-12-7-11-19 14c-11 8-16 14-11 14 4 0 0 9-10 20s-23 20-29 20h-11l11-8zm770-77-20-15 7-6c3-4 13-4 22-1l15 6v16c0 18 0 18-24 0zm-71-15-6-10h10c5 0 13 5 16 10l6 10h-10c-5 0-13-4-16-10zm-97-57c7-3 16-2 19 1 4 3-2 6-13 5l-19-1 13-5zm-668-41c0-4 9-13 21-20l21-13 6 6 7 7-19 14c-22 15-36 18-36 6zm34-58 22-25 28 14 27 15-18 7c-10 4-32 9-50 10l-32 3 23-24zm806-29c-14-8-20-14-15-14 6 0 21 6 35 14s21 14 15 14c-5 0-21-6-35-14zm-863-62c-11-10-8-33 4-33h10l-7 11-6 11 26-17 26-17 15 12 14 12 13-7c7-4 4 1-6 9l-20 16-17-5-17-6-7 11c-7 12-19 13-28 3zm695-95-12-12v-68l20-5c11-3 20-10 20-15v-9l-17 2c-10 1-26-1-35-6l-18-7-16 6-15 6 7-11 7-11-31 7c-17 3-65 7-107 7l-75 1v7c0 4-9 10-19 13l-20 5-23-13-24-12h-95l-96-1-13 8-14 9-19-11c-11-5-40-10-65-11h-46l25-9c13-5 32-7 42-4l19 5-6-15-5-14h12c7 0 18 5 25 12l12 12v-15c0-9-11-25-24-38l-23-22-28-5c-31-5-85-31-85-40 0-4 9-4 21-1l21 6-6-14-5-14 10-7 11-6 11 11c6 6 15 11 20 11h8l-6-9-5-10 11-6 10-7-77-54c-98-68-85-71 16-4 41 27 82 50 91 50 8 0 20 5 27 12l12 12v-17c0-9-3-17-7-17-5 0-9-11-9-25l-2-25 9 6 9 5-6-15-6-16h-18c-29 0-50-11-50-26v-14l25 10 26 10-27-35-26-35h15c9 0 19 5 22 10s11 10 16 10h10l-11-19c-15-29-13-31 25-31h34l12 21 11 21-24-6-23-6 28 13 28 13 41 50 40 49-61 3c-33 2-61 5-61 7 0 7 39 45 45 45 3 0 5-8 5-17v-18l31 35 31 35-7-33-7-34 21 11 21 12v-52l-26-50-25-51 6-6 6-7 19 25 20 25-21-54c-21-57-21-77 1-36 14 26 30 33 30 14v-11l14 11 14 12-5-20-5-21h50l5 10 6 11-3-13c-1-7 5-20 13-30l15-18h41l-15 10-15 10h25v72l15-12c8-7 15-9 15-6 0 4 9 2 20-4l20-11v12c0 7 3 10 6 6 3-3 12-1 19 6l12 12-10 28-9 29 10 10 11 11 10-26c6-15 15-27 20-27 7 0 48-88 65-142 3-10 10-18 15-18h10l-21 50-21 51 12 25 11 25-7 12c-4 6-8 30-8 52l-2 40 11 7c6 4 16 8 21 8h10l-15-9-14-10 34-50 35-51h43l12-15c7-8 16-15 21-15h9l-12 20-13 21 15 9 15 9-23 30c-29 40-28 45 8 26 16-8 34-15 41-15s28-12 48-26l36-26-85 81c-47 44-81 80-77 81h8l-11 20-11 20h9c4 0 29-13 55-30 26-16 53-30 60-30h11l-34 31-34 32 24-8c14-4 37-14 53-22 15-7 27-11 27-9 0 3-15 13-32 22-18 9-37 23-41 30-4 8-14 14-22 14h-14l4 13 5 12-31 18c-50 28-26 32 41 7 60-23 96-22 46 1-14 7-26 15-26 19 0 3-15 11-33 18l-34 12-25 29-26 28 5 25 5 26-9 5-10 6-11-11zM490 620c-14-11-31-20-38-20h-13l6 11c7 11 42 27 60 28 6 0-1-8-15-19zm200-7c-12-16-30-43-42-60l-20-33-9 6-9 5 16 30c8 17 21 32 29 35s17 14 20 25l6 19h31l-22-27zm235 9c-3-3-11 0-18 7l-12 12 18-7c10-3 15-9 12-12zm-63-20 18-15-6-8c-9-16-23-9-39 19l-16 27 4-22 5-23-8-5-9-5-6 21-7 21 13 9 13 8 11-6c5-3 18-13 27-21zm-337-12-5-30 17-1h18l-20-9c-11-5-39-9-62-9l-43-1v8c0 4 6 14 13 21l12 13-20-10c-11-5-33-22-48-36l-28-26-15 8-14 8 27 20c30 22 93 47 101 40 2-3 18 4 35 15 18 10 33 19 35 19 1 0 0-13-3-30zm513-5 42-19v-26l-17 2c-10 1-36 0-57 0l-39-2 21-23c28-30 28-37-3-37h-26l-8 22c-4 11-6 32-3 44l4 24 9-5 8-5-5 23-4 24 18-1c9-1 36-10 60-21zm-347-32-10-18-1 16c0 17 10 32 18 25 2-3-1-13-7-23zm195-92c-1-16-4-33-8-36l-6-7-15 34c-8 18-17 41-21 51l-5 17 28-15 29-14-2-30zm-205 9c5 0 9-6 9-13v-14l30 5 30 4v-22l-25-1c-14-1-31-2-37-3l-13-1-19-57c-10-32-22-58-27-58h-10l6 48c3 26 6 60 6 76l-1 30 18 19 17 19 3-16c2-9 8-16 13-16zm136-2-5-13v50l5-12c2-7 2-19 0-25zm181-33c-3-3-9 2-12 12l-7 18 12-12c7-7 10-15 7-18zm-308-60v-25h-20v18c0 17 8 32 17 32 2 0 3-11 3-25zm248-60c-3-3-13 7-23 22l-17 28 23-22c12-12 20-25 17-28zm167 454c-9-26-8-27 42-21l43 4-6 9-6 10-19-6-19-6-6 15c-8 22-21 20-29-5zM238 638l-38-10v-19l23 7c12 4 28 7 35 7 6 0 12 4 12 9v9l10-6 10-6v10c0 13-2 12-52-1zm77-44-19-14h15c8 0 20 4 28 9l13 9-9 5c-4 3-17-1-28-9zm885 2c0-2 7-7 16-10l15-6-6 10c-6 10-25 14-25 6zm-75-16c3-5 13-10 21-10h15l-6 10c-3 6-13 10-21 10h-15l6-10zm45-129v-8l-27 4-28 4 24-20c13-12 31-21 40-21h16l-13 8-13 9 7 16c3 9 3 17 0 17s-6-4-6-9zM999 258l-11-21 16 6 17 7-6-19-6-19 10-7 11-6-6 15-6 16h19l-5 25c-5 31-18 32-33 3zm-239-55 1-48 10 18 10 17h39v60h-60v-47zm80 20c0-5 4-15 10-23l9-14 7 7 7 7 14-12c18-15 23-8 12 20l-8 22h-26c-14 0-25-3-25-7z"/></g></g></svg>
