<?xml version="1.0" encoding="UTF-8" standalone="yes"?>
<svg xmlns="http://www.w3.org/2000/svg" width="150" height="150" fill-rule="evenodd" baseProfile="tiny-ps"><path fill="#cdc1ba" d="M86.5-.5h20a80 80 0 0 0-5 9q-8.277 3.765-8.5-5-.345 5.57-3.5 2a7.1 7.1 0 0 0-1 5h-3a8.8 8.8 0 0 1-1.5 5 2.43 2.43 0 0 1-.5-2v-1q2.983-5.995 3-13"/><path fill="#c8c4bd" d="M115.5-.5h34v4a58.8 58.8 0 0 0-11-1.5A78 78 0 0 1 128 12.5a.91.91 0 0 1-.5-1 14.7 14.7 0 0 1 3-3.5l-1.5-.5q-7.114 4.231-15 2-2.81 2.051-5 5a.91.91 0 0 1-.5-1 95 95 0 0 0 7-14"/><path fill="#dddddc" d="M15.5-.5h71q-.017 7.005-3 13a31.3 31.3 0 0 0-2-5 31 31 0 0 1-2 2v-4a56.9 56.9 0 0 0-17 2q-.424-9.723-6-3.5-5.421 1.098-10 4a32.3 32.3 0 0 0 9 7.5 5.5 5.5 0 0 1-3 3q-1.311-3.285-5-3a57.5 57.5 0 0 0-4-9.5q-2.302-.745-4.5.5-2.48-.48-3-3-.296 7.018-3 1-1.513 1.737-4 2a14.9 14.9 0 0 1-7.5-3 35.4 35.4 0 0 1-6-4"/><path fill="#d9d9d8" d="M-.5-.5h14l11 14a2.43 2.43 0 0 1-.5 2q-1.139-2.344-3.5-3-.797-3.066-3.5-5-1 4-2 0A111 111 0 0 1 4.5 15q-2.545.576-5-.5z"/><path fill="#d2d2d1" d="M79.5 9.5h-16v6h-8a32.3 32.3 0 0 1-9-7.5q4.579-2.902 10-4 5.576-6.223 6 3.5a56.9 56.9 0 0 1 17-2z"/><path fill="#c8c4c3" d="M21.5 3.5a14.9 14.9 0 0 0 7.5 3q2.487-.263 4-2 2.704 6.018 3-1 .52 2.52 3 3 2.198-1.245 4.5-.5a57.5 57.5 0 0 1 4 9.5q3.689-.285 5 3a18.5 18.5 0 0 1-.5 6q-.417-1.374-1.5-2-1.744-3.723-6-4a45.8 45.8 0 0 0-6.5-11l4.5 13q2.654 2.881 4 7-1.602 1.402-4 1a3 3 0 0 1-2-2q-8.235-6.993-12.5-17-3.995-2.247-6.5-6"/><path fill="#d2d1d0" d="M20.5 12.5q-.156 3.709-3 2a7.25 7.25 0 0 0-2.5 2q-1.076-1.426-2.5-.5.599 3.903 0 7.5a17.9 17.9 0 0 0-6-3 10.1 10.1 0 0 0-6 1.5q1.6 1.738-1 2.5v-10q2.455 1.076 5 .5A111 111 0 0 0 15 7.5q1 4 2 0 2.703 1.934 3.5 5"/><path fill="#b9aba4" d="M106.5-.5h7a307 307 0 0 1-9 17 7.06 7.06 0 0 0-2.5 2q-2.549-1.359-5.5-1 .527-3.555.5-7-1.904 2.107-1.5 5a53 53 0 0 0-3.5 7l-1-3q-3.159 2.687-7.5 2v3q-1.453-3.161-1-7h-3a13.8 13.8 0 0 1 4-4 2.43 2.43 0 0 0 .5 2 8.8 8.8 0 0 0 1.5-5h3a7.1 7.1 0 0 1 1-5q3.155 3.57 3.5-2 .223 8.765 8.5 5a80 80 0 0 1 5-9"/><path fill="#bbb2ab" d="M149.5 3.5v12q-3.426.712-6 3v-3a71 71 0 0 1-16.5-1l-5 5a2.43 2.43 0 0 1-.5-2 25.7 25.7 0 0 1 6-6 .91.91 0 0 0 .5 1A78 78 0 0 0 138.5 2q5.518.222 11 1.5"/><path fill="#8d898a" d="M44.5 18.5q-2 0-2 2L38 7.5a45.8 45.8 0 0 1 6.5 11"/><path fill="#bfb7b2" d="M83.5 12.5v1a13.8 13.8 0 0 0-4 4h-5q.356-1.937-1-3-3.439-.384-6.5 1a89 89 0 0 0 .5 11l-2-3q.442-3.352-1-6-1.161-.97-3-1l-6 2h-3a5.5 5.5 0 0 0 3-3h8v-6h16l2-2a31.3 31.3 0 0 1 2 5"/><path fill="#cac9c8" d="M20.5 12.5q2.361.656 3.5 3a2.43 2.43 0 0 0 .5-2q5.98 4.485 10 11-.09.814-1 1-2-3-5-5-2.943 5.694-8.5 9a110 110 0 0 1-8.5-5l-2 3q-2.547-1.772-5 0 1.915 2.133-1 3h-3a97 97 0 0 1 3-8q1.426 1.239 3 .5-1.647-1.155 0-2.5 3.27.925 6 3 .599-3.597 0-7.5 1.424-.926 2.5.5a7.25 7.25 0 0 1 2.5-2q2.844 1.709 3-2"/><path fill="#938d89" d="M13.5-.5h2a35.4 35.4 0 0 0 6 4q2.505 3.753 6.5 6 4.265 10.007 12.5 17-1.496-.045-2 1.5 1.155 2.662 3.5 4.5 1 1.5 0 3-1.996-3.744-5.5-6v-1q.406-2.82-2-4-4.02-6.515-10-11z"/><path fill="#dad5cf" d="M149.5 15.5v9a383 383 0 0 0-14 4l-1-1q1.237-1.329 3-1v-3a21.8 21.8 0 0 0 6-5q2.574-2.288 6-3"/><path fill="#614a41" d="M44.5 18.5q4.256.277 6 4 .401 2.398-1 4a5.73 5.73 0 0 1-3 1q-1.346-4.119-4-7 0-2 2-2"/><path fill="#553d33" d="M64.5 17.5q1.442 2.648 1 6c-5 1-7-1-6-6z"/><path fill="#897f76" d="M104.5 16.5q-.99 4.724-6 4.5-2.07 1.986-1 4a2.43 2.43 0 0 1-2 .5v-10q-.404-2.893 1.5-5a45 45 0 0 1-.5 7q2.951-.359 5.5 1a7.06 7.06 0 0 1 2.5-2"/><path fill="#aea59e" d="M143.5 18.5a21.8 21.8 0 0 1-6 5 104.5 104.5 0 0 0-13 11q-.332-1.852-2-3a39 39 0 0 0 5.5-5q1.038-1.405-.5-2-3.084-1.593-6 1-2.281-.57-5-.5 3.465-3.2 5-7.5a2.43 2.43 0 0 0 .5 2l5-5a71 71 0 0 0 16.5 1z"/><path fill="#967966" d="M95.5 15.5v10q-.595 1.538-2 .5 1.526-1.574.5-3.5-.476 2.701-2 1-.625 1.884-2.5 2-2.361.656-3.5 3-1.114-2.911.5-5.5-1.932-.358-3 1.5v-3q4.341.687 7.5-2l1 3a53 53 0 0 1 3.5-7"/><path fill="#8c7c71" d="M73.5 14.5q1.356 1.063 1 3h8q-.453 3.839 1 7-.513 1.258-2 1v-7h-6a52 52 0 0 1-1 7 4.93 4.93 0 0 1-3-.5q2.793-4.724 2-10.5"/><path fill="#968d86" d="M127.5 11.5a25.7 25.7 0 0 0-6 6q-1.535 4.3-5 7.5 2.719-.07 5 .5 2.916-2.593 6-1a45.6 45.6 0 0 1-9 7q-2.975.515-4-2-.352-.895-1.5-1-1.516.834-2.5 2-.814-.09-1-1a65 65 0 0 1 10-13.5q-1.724-2.616-4-.5l-4 6a12 12 0 0 0-6 1q-.743-5.067 3-9a.91.91 0 0 0 .5 1q2.19-2.948 5-5 7.886 2.231 15-2l1.5.5a14.7 14.7 0 0 0-3 3.5"/><path fill="#cbc9c8" d="M6.5 20.5q-1.647 1.345 0 2.5-1.573.739-3-.5l-3 8h3a57.5 57.5 0 0 0 12 8q1.968.968 3 3-1.905 1.182-3 3a28.1 28.1 0 0 1-9-5 11.5 11.5 0 0 1-4 4q4.85 6.773-3 5v-24q2.6-.762 1-2.5a10.1 10.1 0 0 1 6-1.5"/><path fill="#87655a" d="M64.5 17.5h-5c-1 5 1 7 6 6l2 3q.257 1.488-1 2-1.38-.851-1 2a4.93 4.93 0 0 1-.5 3L62.5 30a3.94 3.94 0 0 1 1-2q-2.648-.96-5 .5a5.73 5.73 0 0 0-1-3 29.4 29.4 0 0 1-2-7l6-2q1.839.03 3 1"/><path fill="#57443e" d="M73.5 14.5q.793 5.776-2 10.5a4.93 4.93 0 0 0 3 .5 52 52 0 0 0 1-7h6v7a81 81 0 0 1-2.5-3q-4.424 3.339-5 9a13 13 0 0 1-.5-5h-5q.329 1.763-1 3-.91-.186-1-1 1.257-.512 1-2a89 89 0 0 1-.5-11q3.061-1.384 6.5-1"/><path fill="#603b2a" d="M53.5 18.5h2a29.4 29.4 0 0 0 2 7q-1.932 4.749 1 9.5-.666 2.643-1.5-.5a32 32 0 0 1-1.5 6h-1a5.58 5.58 0 0 0-1-3q.519-1.794 1.5 0l.5-3q-.861-5.141 0-10a31.7 31.7 0 0 1-2-6"/><path fill="#4d4038" d="M110.5 30.5q-4.256 5.94-2-1.5-2.545-.576-5 .5 4.581-3.316 8-8l4-6q2.276-2.116 4 .5a65 65 0 0 0-10 13.5q.186.91 1 1"/><path fill="#69594f" d="M113.5-.5h2a95 95 0 0 1-7 14q-3.743 3.933-3 9a12 12 0 0 1 6-1q-3.419 4.684-8 8-1.98 2.162-5 2 3.756-3.382-2-4-3.159 1.6-4.5 5-.576-3.84-2.5-7 1.875-.116 2.5-2 1.524 1.701 2-1 1.026 1.926-.5 3.5 1.405 1.038 2-.5a2.43 2.43 0 0 0 2-.5q-1.07-2.014 1-4 5.01.224 6-4.5a307 307 0 0 0 9-17"/><path fill="#ba937f" d="M49.5 26.5q3.411 4.093 4.5 9-2.089-3.937-3.5 0-2.234-5.748-8-7 2.398.402 4-1a5.73 5.73 0 0 0 3-1"/><path fill="#95654f" d="M52.5 18.5h1a31.7 31.7 0 0 0 2 6q-.861 4.859 0 10l-.5 3q-.981-1.794-1.5 0a5.58 5.58 0 0 1 1 3h-1a19 19 0 0 0-3-5q1.411-3.937 3.5 0-1.089-4.907-4.5-9 1.401-1.602 1-4 1.083.626 1.5 2 .743-2.96.5-6"/><path fill="#3e2318" d="M89.5 25.5q1.924 3.16 2.5 7 1.341-3.4 4.5-5-2.253 6.042-3.5 12a63 63 0 0 0 5.5-8q3.02.162 5-2 2.455-1.076 5-.5-2.256 7.44 2 1.5.984-1.166 2.5-2 1.148.105 1.5 1a55 55 0 0 1-7 7 29 29 0 0 0-4.5-3q-6.125 1.871-7.5 8-2.398-.401-4 1 2.325 3.058 3 7-.09.814-1 1a20.2 20.2 0 0 1-1.5-6 7.3 7.3 0 0 0-2 3 4.45 4.45 0 0 1-1.5-2 112 112 0 0 0 4-11q-.519-1.794-1.5 0l-1-4q-.354 2.428-2.5 3-.83-3.078-3-1-1.083.626-1.5 2a17.6 17.6 0 0 1-1.5-9q1.487.258 2-1 1.068-1.858 3-1.5-1.614 2.589-.5 5.5 1.139-2.344 3.5-3"/><path fill="#bebbba" d="M34.5 24.5q2.406 1.18 2 4-4.486-.501-7 3a260 260 0 0 1-17-.5 3.94 3.94 0 0 0-1 2 56 56 0 0 1 4 5.5 57.5 57.5 0 0 1-12-8q2.915-.867 1-3 2.453-1.772 5 0l2-3 8.5 5q5.557-3.306 8.5-9 3 2 5 5 .91-.186 1-1"/><path fill="#c7b9b1" d="M137.5 23.5v3q-1.763-.329-3 1l1 1a383 383 0 0 1 14-4v16q-4.116.379-7.5-2-4.47 2.62-9.5 1.5 4.69-2.475 1-5.5a31 31 0 0 1 2-2l-1.5-1q-4.147 2.098-7.5 5-9.767 4.459-2-2a104.5 104.5 0 0 1 13-11"/><path fill="#6f3f37" d="M65.5 30.5q1.401 1.602 1 4v3a20.7 20.7 0 0 1-5-1l-3-8q2.352-1.46 5-.5a3.94 3.94 0 0 0-1 2l2.5 3.5a4.93 4.93 0 0 0 .5-3"/><path fill="#866756" d="M36.5 28.5v1q-3.74-.554-2 2a.91.91 0 0 0-1 .5 18.5 18.5 0 0 1 2 3.5q.792 2.021.5 4-1.077-1.426-2.5-.5l3 3q-3.407-.115-5-3.5l3-1.5a38.4 38.4 0 0 1-5-5.5q2.514-3.501 7-3"/><path fill="#281915" d="M81.5 25.5a17.6 17.6 0 0 0 1.5 9q.417-1.374 1.5-2 .895.352 1 1.5a60 60 0 0 1-3 6.5q-.66-3.516-3-6a7.1 7.1 0 0 0-1-5q-.907 4.21-4 7a14.8 14.8 0 0 1-3.5-4q-1.574 2.41-4.5 2 .401-2.398-1-4-.38-2.851 1-2 .09.814 1 1 1.329-1.237 1-3h5a13 13 0 0 0 .5 5q.576-5.661 5-9a81 81 0 0 0 2.5 3"/><path fill="#614c40" d="M114.5 29.5q1.025 2.515 4 2a2.43 2.43 0 0 1 2 .5q-1.712 1.112 0 2.5a41 41 0 0 1-7 10q-1 0-1-1 .39-5.32 3.5-10a32 32 0 0 0-4.5 5q-2.5 1.749-5 0l1-2a55 55 0 0 0 7-7"/><path fill="#bcb1aa" d="M29.5 31.5a38.4 38.4 0 0 0 5 5.5l-3 1.5h-3a7.1 7.1 0 0 1-5-1 26 26 0 0 0-7-5l-1 1 5 4-1 2 7 2a32.3 32.3 0 0 1 6 4.5 2.43 2.43 0 0 1-2 .5 20.6 20.6 0 0 1-8-3q-2.452.82-5 1h-2q1.095-1.818 3-3-1.032-2.032-3-3a56 56 0 0 0-4-5.5 3.94 3.94 0 0 1 1-2 260 260 0 0 0 17 .5"/><path fill="#af8167" d="M96.5 27.5q5.756.618 2 4a63 63 0 0 1-5.5 8q1.247-5.958 3.5-12"/><path fill="#8a8380" d="M28.5 38.5q-.423 1.917-2 3l-7-2 1-2-5-4 1-1a26 26 0 0 1 7 5 7.1 7.1 0 0 0 5 1"/><path fill="#c3a188" d="M34.5 31.5a25.7 25.7 0 0 1 6 6q-.09.814-1 1l-4-3a18.5 18.5 0 0 0-2-3.5.91.91 0 0 1 1-.5"/><path fill="#472119" d="M40.5 26.5a3 3 0 0 0 2 2q5.766 1.252 8 7a19 19 0 0 1 3 5q-1.812 1.1-4 1 1.1-1.812 1-4h-6v3l-4-3a25.7 25.7 0 0 0-6-6q-1.74-2.554 2-2 3.504 2.256 5.5 6 1-1.5 0-3-2.345-1.838-3.5-4.5.504-1.545 2-1.5"/><path fill="#180805" d="M94.5 49.5q1.257-.513 1-2 3.352.442 6-1 3.394 1.05 4 3 1.82-.37 2-2 3.64.035 7 1.5-1.984 1.224-2 3.5a5.73 5.73 0 0 1-3 1 6.85 6.85 0 0 0-4 1q-7.104-4.485-13 1l-3 4q-2.361.655-3.5 3a13 13 0 0 1-.5-5q2.728-2.154 1-5-2.047 1.96-4 0a4.85 4.85 0 0 1 1-4q6.801-4.36 3-11 1.401-1.602 1-4 2.146-.572 2.5-3l1 4q.981-1.794 1.5 0a112 112 0 0 1-4 11 4.45 4.45 0 0 0 1.5 2 7.3 7.3 0 0 1 2-3 20.2 20.2 0 0 0 1.5 6q.91-.186 1-1"/><path fill="#1a0c0c" d="m107.5 36.5-1 2q-1.257.513-1 2-4.842 1.37-10 1 1.375-6.129 7.5-8a29 29 0 0 1 4.5 3"/><path fill="#8c6257" d="M84.5 32.5q2.17-2.078 3 1 .401 2.398-1 4-1.952 2.078 0 4.5-2.023 1.158-2.5 3.5a43 43 0 0 1-1.5-5 60 60 0 0 0 3-6.5q-.105-1.148-1-1.5"/><path fill="#8a624e" d="M112.5 43.5a21.6 21.6 0 0 0-5 4q-1.257-.513-1-2a32 32 0 0 0 1-4q-.686-1.196-2-1-.257-1.487 1-2 2.5 1.749 5 0a32 32 0 0 1 4.5-5q-3.11 4.68-3.5 10"/><path fill="#55201b" d="M79.5 34.5q2.34 2.484 3 6a43 43 0 0 0 1.5 5q.477-2.342 2.5-3.5-1.952-2.422 0-4.5 3.801 6.64-3 11a4.85 4.85 0 0 0-1 4 5.73 5.73 0 0 1-3-1 100.4 100.4 0 0 0 0-17"/><path fill="#673e32" d="M105.5 40.5q1.314-.196 2 1a32 32 0 0 1-1 4q-2.297-5.037-5 1-2.648 1.442-6 1a.91.91 0 0 1-1-.5q4.116-5.193-3-4.5 1.602-1.401 4-1 5.158.37 10-1"/><path fill="#a3978b" d="M133.5 34.5q3.69 3.025-1 5.5 5.03 1.12 9.5-1.5 3.384 2.379 7.5 2v3a39.7 39.7 0 0 0-11 1q-.693-2.07-3-2-4.044 1.681-8 0 1.527-2.028 4-3-3.732-3.876 2-5"/><path fill="#5f362b" d="m35.5 35.5 4 3q.91-.186 1-1l4 3q2.355 2.062 2.5 5a54 54 0 0 1-6.5-4q-3.455.564-1 3a27.6 27.6 0 0 1-5 1.5l5 4.5q-1.602 1.401-4 1a14.56 14.56 0 0 1-5-4v-1a2.43 2.43 0 0 0 2-.5 32.3 32.3 0 0 0-6-4.5q1.577-1.083 2-3h3q1.593 3.385 5 3.5l-3-3q1.423-.926 2.5.5.292-1.979-.5-4"/><path fill="#6c291e" d="M91.5 42.5q7.116-.693 3 4.5a.91.91 0 0 0 1 .5q.257 1.487-1 2-.675-3.942-3-7"/><path fill="#320c05" d="M106.5 45.5q-.257 1.487 1 2-.18 1.63-2 2-.606-1.95-4-3 2.703-6.037 5-1"/><path fill="#ab7969" d="M39.5 44.5a6.54 6.54 0 0 1 3 3 4.93 4.93 0 0 0-3 .5q1.32 1.063 2 2.5h-2l-5-4.5a27.6 27.6 0 0 0 5-1.5"/><path fill="#3c0908" d="M79.5 53.5a23.6 23.6 0 0 0 6 4 13 13 0 0 0 .5 5q1.139-2.345 3.5-3 .895 2.153 0 5a9.1 9.1 0 0 0 5-1q1.196.686 1 2h-2q-2.188-.1-4 1-3.325-1.303-7-1l-7.5-2q-1.545.504-1.5 2h-2a39 39 0 0 1-2.5-5q-2.426 1.554-.5 3.5-1.476.886-2-1-.946-7.85-1-15.5a5.73 5.73 0 0 0-1-3q8.71-1.32 5 7.5.609 5.602 3 10.5 2.739-3.421 6 0 .948-3.356 4-5-1.16-1.816-2.5 0a8.4 8.4 0 0 1-.5-4"/><path fill="#775e4f" d="M127.5 24.5q1.538.595.5 2a39 39 0 0 1-5.5 5q1.668 1.148 2 3-7.767 6.459 2 2a2.43 2.43 0 0 1 2 .5 23.2 23.2 0 0 1-6.5 4.5q-1 2.5 0 5 4.61-1.675 9.5-.5l-4 4 6 2.5q-2.703 1.437-6 2a31.6 31.6 0 0 1-5-3 4.45 4.45 0 0 1 2-1.5l-1.5-.5q-2.35 2.034-5.5 2a22.5 22.5 0 0 1-4-7 41 41 0 0 0 7-10q-1.712-1.388 0-2.5a2.43 2.43 0 0 0-2-.5 45.6 45.6 0 0 0 9-7"/><path fill="#230b06" d="M49.5 41.5q3.651 12.005-6 6h-1a6.54 6.54 0 0 0-3-3q-2.455-2.436 1-3a54 54 0 0 0 6.5 4q-.145-2.938-2.5-5v-3h6q.1 2.188-1 4"/><path fill="#c1a79d" d="M149.5 43.5v4q-6.295 4.266-14 5a102 102 0 0 1 8-3.5q-6.392 1.17-12-.5l7-4a39.7 39.7 0 0 1 11-1"/><path fill="#c0bebd" d="M15.5 44.5h2q.305 2.317 2 4a3.65 3.65 0 0 1-1 1.5q-3.647.378-7-1.5-1.846 1.726 0 3.5a23.4 23.4 0 0 0 6 2.5q2.242.733 4 2-5.483-.863-9 3-1.1 1.812-1 4v2a19.6 19.6 0 0 0 3.5 2l1-2a25 25 0 0 1 .5 7q-8.753.565-17-2v-22q7.85 1.773 3-5a11.5 11.5 0 0 0 4-4 28.1 28.1 0 0 0 9 5"/><path fill="#713621" d="M30.5 47.5a14.56 14.56 0 0 0 5 4l2 4a8.8 8.8 0 0 1-5-1.5q.798-3.007-3-3.5-8.298-3.582 1-3"/><path fill="#a15447" d="M61.5 41.5q2.466.465 3 3 .915 1.337 1 3 .059 1.884-1.5 3-.055-3.711-2.5-6z"/><path fill="#130505" d="M79.5 34.5a100.4 100.4 0 0 1 0 17v2a8.4 8.4 0 0 0 .5 4q1.34-1.816 2.5 0-3.052 1.644-4 5-3.261-3.421-6 0-2.391-4.898-3-10.5 3.71-8.82-5-7.5-.534-2.535-3-3h-4q-.476-4.57 4-5a20.7 20.7 0 0 0 5 1v-3q2.926.41 4.5-2a14.8 14.8 0 0 0 3.5 4q3.093-2.79 4-7a7.1 7.1 0 0 1 1 5"/><path fill="#361b0d" d="M112.5 43.5q0 1 1 1a22.5 22.5 0 0 0 4 7q-2.128 1.427-5 1 .016-2.276 2-3.5a17.8 17.8 0 0 0-7-1.5 21.6 21.6 0 0 1 5-4"/><path fill="#937b6f" d="M133.5 34.5q-5.732 1.124-2 5-2.473.972-4 3 3.956 1.681 8 0 2.307-.07 3 2l-7 4q5.608 1.67 12 .5a102 102 0 0 0-8 3.5h-2a219 219 0 0 0-6-2.5l4-4q-4.89-1.175-9.5.5-1-2.5 0-5a23.2 23.2 0 0 0 6.5-4.5 2.43 2.43 0 0 0-2-.5q3.353-2.902 7.5-5l1.5 1a31 31 0 0 0-2 2"/><path fill="#9a9491" d="M30.5 46.5v1q-9.298-.582-1 3-1.758 1.808-4 0-4.412 1.67-8 4a23.4 23.4 0 0 1-6-2.5q-1.846-1.774 0-3.5 3.353 1.878 7 1.5a3.65 3.65 0 0 0 1-1.5q-1.695-1.683-2-4a20.2 20.2 0 0 0 5-1 20.6 20.6 0 0 0 8 3"/><path fill="#8e644f" d="M127.5 54.5a39 39 0 0 1-5 2.5q2.451.74 5 .5a19.4 19.4 0 0 0-5 3q-1.29-3.171-5-3.5a7.3 7.3 0 0 0 3-2q-5.75-.168-10 3.5h-2q1.61-2.077 4-3.5-1.574-.739-3 .5-1.445-.705 0-2a5.73 5.73 0 0 0 3-1q2.872.427 5-1 3.15.034 5.5-2l1.5.5a4.45 4.45 0 0 0-2 1.5 31.6 31.6 0 0 0 5 3"/><path fill="#917569" d="M29.5 50.5q3.798.493 3 3.5a8.8 8.8 0 0 0 5 1.5v1h-16q-1.758-1.267-4-2 3.588-2.33 8-4 2.242 1.808 4 0"/><path fill="#4d090c" d="M39.5 50.5h2q.68 1.438 2 2.5a23.8 23.8 0 0 1-6 2.5l-2-4q2.398.401 4-1"/><path fill="#591714" d="M53.5 40.5h2q1.041 4.952-1 10a18.1 18.1 0 0 0 2 5.5q-5.949 2.418 0 5 2.96.743 6 .5a84 84 0 0 0-1-17q2.445 2.289 2.5 6 1.559-1.116 1.5-3 .054 7.65 1 15.5.524 1.886 2 1-1.926-1.946.5-3.5a39 39 0 0 0 2.5 5v1a3 3 0 0 1-2 2v-3h-4q.282-2.405-1.5-4-7.246 5.454-15 0-3.384 2.378-7.5 2v3h-4l-6-1h-3v-5h7q1.222 2.006 3.5 3 .926-1.423-.5-2.5a97 97 0 0 1 11-2.5q3.72-1.21 4-5h-6q-5.353-1.27-4-6 9.651 6.005 6-6 2.188.1 4-1"/><path fill="#8c4530" d="m99.5 57.5-3 2q-1.329-1.238-1-3v-3h5q.1 2.188-1 4"/><path fill="#dbcdc1" d="M149.5 47.5v8a78 78 0 0 1-16 1.5l4-2q-5.494-.413-10 2.5a13 13 0 0 1-5-.5 39 39 0 0 0 5-2.5q3.297-.563 6-2h2q7.705-.734 14-5"/><path fill="#a25744" d="M42.5 47.5h1q-1.353 4.73 4 6 1.008 1.15 2.5 2 1.032 1.248-.5 2-2.025-2.175-5-2v3h-4q-.481-2.322-3-2v-1a23.8 23.8 0 0 0 6-2.5q-1.32-1.062-2-2.5c-.68-1.438-1.12-1.792-2-2.5a4.93 4.93 0 0 1 3-.5"/><path fill="#862d1d" d="M47.5 53.5h6q-.28 3.79-4 5a97 97 0 0 0-11 2.5q1.426 1.077.5 2.5-2.278-.994-3.5-3 2.145-1.556 5-2h4v-3q2.975-.175 5 2 1.532-.752.5-2-1.492-.85-2.5-2"/><path fill="#561f17" d="M109.5 53.5q-1.445 1.295 0 2 1.426-1.239 3-.5-2.39 1.423-4 3.5-.09.814-1 1a20.3 20.3 0 0 1-4.5-3 14 14 0 0 1-3.5 1q1.1-1.812 1-4h-5v3q-1.936.356-3-1 5.896-5.485 13-1a6.85 6.85 0 0 1 4-1"/><path fill="#862325" d="M79.5 51.5q1.337.915 3 1 1.953 1.96 4 0 1.728 2.846-1 5a23.6 23.6 0 0 1-6-4z"/><path fill="#542812" d="M122.5 60.5h-1a19.2 19.2 0 0 1-6 1q-1.739-2.625-5-3 4.25-3.668 10-3.5a7.3 7.3 0 0 1-3 2q3.71.329 5 3.5"/><path fill="#f8e9c8" d="M21.5 56.5h16q2.519-.322 3 2-2.855.444-5 2h-10v11h-3v-11q-5.158.37-10-1 3.517-3.863 9-3"/><path fill="#290b07" d="M57.5 25.5q.915 1.337 1 3l3 8q-4.476.43-4 5h4v3a84 84 0 0 1 1 17 18.5 18.5 0 0 1-6-.5q-5.949-2.582 0-5a18.1 18.1 0 0 1-2-5.5q2.041-5.048 1-10a32 32 0 0 0 1.5-6q.834 3.143 1.5.5-2.932-4.751-1-9.5"/><path fill="#d0b5a7" d="M149.5 55.5v9a171 171 0 0 0-15-1q-1.812-1.1-4-1 .329-1.762-1-3-.91.186-1 1-3.757 1.376-7 0h1a19.4 19.4 0 0 1 5-3q4.506-2.913 10-2.5l-4 2a78 78 0 0 0 16-1.5"/><path fill="#d4ae90" d="M12.5 59.5q4.842 1.37 10 1v11h3v-11h3v1q-2.58 5.938-3 13-2.188-.1-4 1v-14q-5.493-.699-10 2-.1-2.188 1-4"/><path fill="#2b0b06" d="M92.5 55.5q1.064 1.356 3 1-.329 1.762 1 3l3-2a14 14 0 0 0 3.5-1 20.3 20.3 0 0 0 4.5 3q.91-.186 1-1h2q3.261.375 5 3l-6 4h-5q-2.687-.201-5 1l-4-1q.196-1.314-1-2a9.1 9.1 0 0 1-5 1q.895-2.847 0-5z"/><path fill="#8a553d" d="M121.5 60.5q3.243 1.376 7 0a.91.91 0 0 1 1 .5 19.94 19.94 0 0 1-9 2.5 40 40 0 0 1-11 2l6-4a19.2 19.2 0 0 0 6-1"/><path fill="#896355" d="M21.5 65.5h-3q-3.439-1.779-7 0v-2q4.507-2.699 10-2z"/><path fill="#8e1510" d="M69.5 68.5q.127 2.243-2 3l-4-5q-4.5-2-9 0h-1q-4.158-1.9-8 0h-4v-3q4.116.378 7.5-2 7.754 5.454 15 0 1.782 1.595 1.5 4h4z"/><path fill="#821213" d="M82.5 65.5q-.71 2.11-3 2-.513-1.257-2-1-1.602-1.401-4-1-.045-1.496 1.5-2z"/><path fill="#efd7b4" d="M82.5 65.5q3.675-.303 7 1l1 2q.225 7.671-3 2-4.137-2.322-7.5 1a8.4 8.4 0 0 1-.5-4q2.29.11 3-2"/><path fill="#d1382a" d="M93.5 65.5v6l-2 2q.426-2.872-1-5l-1-2q1.812-1.1 4-1"/><path fill="#ebc598" d="M131.5 73.5q-1 0-1-1 .129-1.494-1-2.5-3.102-1.03-6 .5-1.188-1.8 0-4 10.47-3.904 12 7z"/><path fill="#a99397" d="M18.5 65.5h3v8q-1.494.128-2.5-1a25 25 0 0 1-.5-7"/><path fill="#f3be94" d="M44.5 66.5h1q1.953 2.292 5 3-3.266.13-6 2-1.401-2.392 0-5"/><path fill="#d6a676" d="M120.5 63.5v2q-1.467.467-2 2a6.85 6.85 0 0 1 1 4 20.7 20.7 0 0 1-5-1q-4.178-.876-5 3-1.812 1.1-4 1-1.814-5.897 4-9a40 40 0 0 0 11-2"/><path fill="#c74b30" d="M41.5 66.5h3q-1.401 2.608 0 5 2.734-1.87 6-2 1 0 1 1-2.733 2.601-7 3a4.85 4.85 0 0 0-1 4 3 3 0 0 1-2-2z"/><path fill="#e6d4a3" d="M53.5 66.5a19 19 0 0 1 2 8h-3q.401-2.398-1-4 0-1-1-1-3.047-.708-5-3 3.842-1.9 8 0"/><path fill="#af846d" d="M128.5 60.5q.09-.814 1-1 1.329 1.238 1 3 2.188-.1 4 1 1.877 6.632 9 5a11.28 11.28 0 0 1-4 7.5q.897 1.952 3 2.5a4.85 4.85 0 0 1 1 4 27.2 27.2 0 0 1-5.5-2q-2.151.542-3.5 2v-7h-3v-2h4q-1.53-10.904-12-7-1.064-1.356-3-1v-2a19.94 19.94 0 0 0 9-2.5.91.91 0 0 0-1-.5"/><path fill="#eee0ac" d="M38.5 66.5h3v9h-1q-2.831-3.732-2-9"/><path fill="#edcfa7" d="M104.5 65.5a16.3 16.3 0 0 1-2 5q-3.02-.163-5 2-1.083.627-1.5 2-2.569-3.773-.5-8 2.136 3.909 4 0 2.313-1.201 5-1"/><path fill="#af7143" d="M123.5 66.5q-1.188 2.2 0 4 2.898-1.53 6-.5 1.129 1.006 1 2.5-4.073-1.57-8 1l-1-4q-.07-2.307 2-3"/><path fill="#f7e4bc" d="M28.5 66.5h3v9h-3z"/><path fill="#efbe93" d="M61.5 66.5q-1.077 2.455-.5 5 1.466-1.911 2.5 0-.925.166-1.5 1a50.4 50.4 0 0 0-.5 10h-3v-16z"/><path fill="#a29085" d="M134.5 63.5q7.527.17 15 1v18q-3.23 1.61-6 0a4.85 4.85 0 0 0-1-4q-2.103-.548-3-2.5a11.28 11.28 0 0 0 4-7.5q-7.123 1.632-9-5"/><path fill="#c0b6b2" d="M18.5 65.5a25 25 0 0 0 .5 7q1.006 1.128 2.5 1v2q-2.648 1.442-6 1l6 2a5.58 5.58 0 0 0-1 3q-8.982-1.583-21 0v-11q8.247 2.565 17 2a25 25 0 0 0-.5-7l-1 2a19.6 19.6 0 0 1-3.5-2q3.561-1.779 7 0"/><path fill="#f7deb3" d="M61.5 66.5h2l4 5q2.127-.757 2-3a3 3 0 0 0 2-2h5a57 57 0 0 1-1 15 31 31 0 0 0-2-2 32.5 32.5 0 0 0-.5-8l-5 5q-2.463-.717-3.5-3l-1-2q-1.034-1.911-2.5 0-.577-2.545.5-5"/><path fill="#e18e6b" d="M71.5 66.5v-1h2q2.398-.401 4 1v16h-4v-3l2 2a57 57 0 0 0 1-15z"/><path fill="#dca979" d="M28.5 66.5v9h3v1h-4q-.469-5.313 1-10"/><path fill="#9c2210" d="m31.5 65.5 6 1a72.4 72.4 0 0 1-.5 12q-1.517 1.255-3.5 1-.423-1.917-2-3v-11"/><path fill="#d89a6d" d="M53.5 66.5h1q2.749 7.663 2 16h-1v-6h-3q-5.424-2.916-6 3-1.083-1.577-3-2a4.85 4.85 0 0 1 1-4q4.267-.399 7-3 1.401 1.602 1 4h3a19 19 0 0 0-2-8"/><path fill="#be4927" d="M63.5 66.5h-5v16h-2q.749-8.337-2-16 4.5-2 9 0"/><path fill="#ec7958" d="m63.5 71.5 1 2q-2.415 4.055-3 9a50.4 50.4 0 0 1 .5-10q.575-.834 1.5-1"/><path fill="#c0381b" d="M77.5 66.5q1.487-.257 2 1a8.4 8.4 0 0 0 .5 4q3.363-3.322 7.5-1-3.776 2.408-8.5 4-.903 4.081.5 8h-2z"/><path fill="#48110d" d="M102.5 70.5q1.74 2.503 0 5.5.462 2.19 2 3.5v1q-3.136 2.048-7 2v-10q1.98-2.163 5-2"/><path fill="#500804" d="M114.5 70.5q1.767 2.248 5 3a39.7 39.7 0 0 1-10 2v-2q.822-3.876 5-3"/><path fill="#cf9b61" d="M130.5 72.5q0 1 1 1v2a2.43 2.43 0 0 1-.5 2q-1.011-1.617-3-2a48 48 0 0 1-5.5 1v-3q3.927-2.57 8-1"/><path fill="#847a77" d="M15.5 76.5a32.5 32.5 0 0 1-8-.5 3.65 3.65 0 0 1-1-1.5 21.1 21.1 0 0 1 9-1z"/><path fill="#aa2a13" d="M52.5 76.5v3h-6q.576-5.916 6-3"/><path fill="#b1291d" d="M73.5 79.5v3q-3.468-2.8-8-1.5-1.128 1.006-1 2.5h-3v-1q.585-4.945 3-9 1.037 2.283 3.5 3l5-5a32.5 32.5 0 0 1 .5 8"/><path fill="#e2ad81" d="M90.5 68.5q1.426 2.128 1 5v9q-2.872-.426-5 1h-3q-2.188.1-4-1-1.403-3.919-.5-8 4.724-1.592 8.5-4 3.225 5.671 3-2"/><path fill="#962a17" d="M104.5 65.5h5q-5.814 3.103-4 9 .426 2.872-1 5-1.538-1.31-2-3.5 1.74-2.997 0-5.5a16.3 16.3 0 0 0 2-5"/><path fill="#a2703a" d="M109.5 73.5v4q-2.81 2.094-1 5h-1l-3-2v-1q1.426-2.128 1-5 2.188.1 4-1"/><path fill="#7a4d26" d="M25.5 74.5v8h-3q-.512-1.257-2-1a5.58 5.58 0 0 1 1-3l-6-2q3.352.442 6-1 1.812-1.1 4-1"/><path fill="#8b200a" d="M83.5 75.5h4q.735 3.672-2.5 5-3.917-1.5-1.5-5"/><path fill="#d58c61" d="M93.5 65.5h2l4 1q-1.864 3.909-4 0-2.069 4.227.5 8 .417-1.373 1.5-2v10h-4v-17"/><path fill="#b76935" d="M122.5 73.5v3a48 48 0 0 0 5.5-1q1.989.383 3 2a2.43 2.43 0 0 0 .5-2h3v7h-2a19.2 19.2 0 0 1-6.5-3q-2.925.31-3.5 3l-3-5.5q.994-2.278 3-3.5"/><path fill="#aa6132" d="M28.5 61.5v4h3v1h-3q-1.469 4.687-1 10h4q1.577 1.083 2 3-1.779 1.808 0 4h-4q-1.78-1.55-2.5-4-.348 1.855-1.5 3v-8q.42-7.062 3-13"/><path fill="#be8455" d="M37.5 66.5h1q-.831 5.268 2 9 .303 3.675-1 7a19.2 19.2 0 0 1-6 1q-1.779-2.192 0-4 1.983.255 3.5-1 .749-5.979.5-12"/><path fill="#9d5c31" d="M40.5 75.5h1a3 3 0 0 0 2 2q1.917.423 3 2h6v-3h3v6q-8.371 1.947-16 0 1.303-3.325 1-7"/><path fill="#92401e" d="M93.5 71.5v11h-2v-9z"/><path fill="#d3985f" d="M108.5 82.5q-1.81-2.906 1-5 2.682 1.684 6 .5l-2-1q4.971-1.747 6 3.5a4.45 4.45 0 0 1-2 1.5 41 41 0 0 1-9 .5"/><path fill="#c9935f" d="M132.5 82.5v2q-2.188.1-4-1a19.2 19.2 0 0 1-6-1q.575-2.69 3.5-3a19.2 19.2 0 0 0 6.5 3"/><path fill="#b08772" d="M29.5 83.5q-3.692 1.547-8 2-.512-1.257-2-1l3-2h3q1.152-1.145 1.5-3 .72 2.45 2.5 4"/><path fill="#8c3c1f" d="M120.5 65.5q1.936-.356 3 1-2.07.693-2 3l1 4q-2.006 1.222-3 3.5l3 5.5a19.2 19.2 0 0 0 6 1q-1.647 1.345 0 2.5a11.7 11.7 0 0 1-7.5-.5q-2.643.666.5 1.5-1.856.348-3 1.5a44.5 44.5 0 0 0-10-6 41 41 0 0 0 9-.5 4.45 4.45 0 0 0 2-1.5q-1.029-5.247-6-3.5l2 1q-3.318 1.184-6-.5v-2a39.7 39.7 0 0 0 10-2q-3.233-.752-5-3a20.7 20.7 0 0 0 5 1 6.85 6.85 0 0 0-1-4q.533-1.533 2-2"/><path fill="#706a66" d="M20.5 81.5q1.488-.257 2 1l-3 2q-9.52-1.24-20 0v-3q12.018-1.583 21 0"/><path fill="#300709" d="M61.5 83.5h3q-.481 2.322-3 2 .417 2.77-2 4-4.747-7.856-3.5 2 1.34-1.816 2.5 0-.856 7.289 0 14a8.4 8.4 0 0 0-.5-4 3.65 3.65 0 0 1-1.5 1 44 44 0 0 0-2-3q-.081-3.198-3-4-.401-2.398 1-4 2.252-3.544-1-6.5 4.783-1.974 10-1.5"/><path fill="#4c1113" d="M73.5 82.5h6q1.812 1.1 4 1-.059 4.965 4 8l-2 2h-6a18.35 18.35 0 0 0-2-9 15 15 0 0 0-3.5 3q-6.54-1.684-3.5 5-.865 3.075-4 3a4.93 4.93 0 0 0-.5-3q-2.838 1.676-2.5 5-4.91.044-2-4 2.368-5.856 7-10-1.963-1.689-4 0-.128-1.494 1-2.5 4.532-1.3 8 1.5"/><path fill="#511113" d="M86.5 83.5q2.128-1.426 5-1h6q-2.571 1.857-6 2a8.4 8.4 0 0 1-.5 4q-1.517-1.255-3.5-1 .401-2.398-1-4"/><path fill="#4e2d28" d="M29.5 83.5h2q1.634 2.425 5 2.5l-3 1.5q-.895-.958-2.5-1a116 116 0 0 1-11.5 2q-.322-2.519 2-3 4.308-.453 8-2"/><path fill="#450c09" d="M55.5 82.5h6v1q-5.217-.474-10 1.5 3.252 2.956 1 6.5-.591-7.001-5.5-1-.76-2.244 1.5-3.5-2.88-.322-5 2l2 1a42.5 42.5 0 0 0-11 5.5v-3a44.5 44.5 0 0 1 6-4.5q-2-1-4 0a26 26 0 0 1-5 3.5l-1-.5a14.7 14.7 0 0 0 3-3.5l3-1.5q-3.366-.075-5-2.5h2a19.2 19.2 0 0 0 6-1q7.629 1.947 16 0"/><path fill="#450b07" d="M107.5 82.5h1a44.5 44.5 0 0 1 10 6 16.5 16.5 0 0 1 5 2.5 4.93 4.93 0 0 1-3 .5 53.2 53.2 0 0 0-16-5.5q1.884.625 2 2.5a20.8 20.8 0 0 1-6-2q2.974-3.096 7-4"/><path fill="#bcb5b5" d="M19.5 84.5q1.488-.257 2 1-2.322.481-2 3a116 116 0 0 0 11.5-2q1.605.042 2.5 1l-12 3q-.626-.936-2-1l-20 5v-10q10.48-1.24 20 0"/><path fill="#270804" d="m104.5 80.5 3 2q-4.026.904-7 4a20.8 20.8 0 0 0 6 2q1.487-.257 2 1l-3 2q-4.216-.929-7.5-4-3.03.798-2.5 4-2.398-.401-4 1-2.745-6.162-3 1h-3l2-2q-4.059-3.035-4-8h3q1.401 1.602 1 4 1.983-.255 3.5 1a8.4 8.4 0 0 0 .5-4q3.429-.143 6-2 3.864.048 7-2"/><path fill="#72493d" d="M33.5 87.5a14.7 14.7 0 0 1-3 3.5l1 .5a26 26 0 0 0 5-3.5q2-1 4 0a44.5 44.5 0 0 0-6 4.5l-6 2q2.029-2.05-1-3-4.36-.841-8 2a2.43 2.43 0 0 1-2-.5 12.7 12.7 0 0 1 4-2.5z"/><path fill="#774234" d="M120.5 91.5q-2 0-2 2-4.105-3.798-10-4-.513-1.257-2-1-.116-1.875-2-2.5a53.2 53.2 0 0 1 16 5.5"/><path fill="#b07861" d="M128.5 83.5q1.812 1.1 4 1 2 .5 0 1-2.514 1.025-2 4-8.93-.192-1 2v3q-2.872-.426-5 1h-3q-1.185-1.352-3-2 0-2 2-2a4.93 4.93 0 0 0 3-.5 16.5 16.5 0 0 0-5-2.5q1.144-1.152 3-1.5-3.143-.834-.5-1.5a11.7 11.7 0 0 0 7.5.5q-1.647-1.155 0-2.5"/><path fill="#733229" d="M52.5 91.5q-1.401 1.602-1 4h-9q.196-1.314-1-2a43 43 0 0 0-5.5 3q-1.148-.105-1.5-1a42.5 42.5 0 0 1 11-5.5l-2-1q2.12-2.322 5-2-2.26 1.256-1.5 3.5 4.909-6.001 5.5 1"/><path fill="#dbd8d8" d="M21.5 90.5a12.7 12.7 0 0 0-4 2.5 2.43 2.43 0 0 0 2 .5q-3.99 2.457-10 5a56 56 0 0 0-10 3v-7l20-5q1.374.064 2 1"/><path fill="#d19e8b" d="m132.5 85.5 5 2q-1.763-.329-3 1a32.4 32.4 0 0 1 3 4.5 36.3 36.3 0 0 1-13 2.5q2.128-1.426 5-1v-3q-7.93-2.192 1-2-.514-2.975 2-4"/><path fill="#4e160e" d="M108.5 89.5q5.895.202 10 4 1.815.648 3 2-11.311-1.896 0 3.5-4.154.315-7.5-2.5.228 2.364 2.5 4-.686 1.197-2 1l-2-1q-2.29.11-3-2 1.724-.436 2-2.5l-1-2.5q-1.78-1.73-3 0a3 3 0 0 1-2-2z"/><path fill="#d1b1a6" d="M137.5 87.5q6.995.996 6 8a7.1 7.1 0 0 0-5 1 26 26 0 0 1 5 3 4.46 4.46 0 0 1-2 1.5q-5.279.125-10-2.5-3.777-1.146-7-3a36.3 36.3 0 0 0 13-2.5 32.4 32.4 0 0 0-3-4.5q1.237-1.329 3-1"/><path fill="#120403" d="M85.5 93.5h3q.255-7.162 3-1 3.364 1.507 1 4.5.462 2.19 2 3.5a20.7 20.7 0 0 1-1 5h-1q-1.936.356-3-1 .67-3.765-2-6 .128-1.494-1-2.5a25 25 0 0 0-7-.5v5q-3.865.067-6-3a16.9 16.9 0 0 1-8-1q.186-.91 1-1 3.135.075 4-3-3.04-6.684 3.5-5a15 15 0 0 1 3.5-3 18.35 18.35 0 0 1 2 9z"/><path fill="#2d090a" d="m109.5 98.5-2-1q-1.18-2.406-4-2l4-2q1.22-1.73 3 0l1 2.5q-.276 2.064-2 2.5"/><path fill="#341b17" d="M34.5 92.5v3q.352.895 1.5 1a43 43 0 0 1 5.5-3q1.196.686 1 2a4.93 4.93 0 0 0-3 .5q1.255 1.517 1 3.5h3q-2.851 4.242 2 5 .481 2.322 3 2-1 3.26-3.5 1-2.151.645-3.5 2.5a8.4 8.4 0 0 1-4 .5l4-5q-2.285-2.674-6-2 .459-5.78-4.5-4a46 46 0 0 0-5.5-3v-1a5.73 5.73 0 0 0 3-1z"/><path fill="#682120" d="M105.5 91.5a3 3 0 0 0 2 2l-4 2a25 25 0 0 0-7 .5q6.47 5.024-2 4.5-1.538-1.31-2-3.5 2.364-2.993-1-4.5 1.602-1.401 4-1-.53-3.202 2.5-4 3.284 3.071 7.5 4"/><path fill="#1a0704" d="M66.5 95.5q-.814.09-1 1a16.9 16.9 0 0 0 8 1v5q-5.175 1.115-5-4h-6q-1.495 4.242 0 8 .895.352 1 1.5l-2 8.5q-2.276.016-3.5 2 1.048-9.667-3 0a8.4 8.4 0 0 1-.5-4 5.73 5.73 0 0 0 1-3q3.704-1.66 3-6-.856-6.711 0-14-1.16-1.816-2.5 0-1.247-9.856 3.5-2 2.417-1.23 2-4 2.519.322 3-2 2.038-1.689 4 0-4.632 4.144-7 10-2.91 4.044 2 4-.338-3.324 2.5-5a4.93 4.93 0 0 1 .5 3"/><path fill="#581d19" d="M87.5 98.5q2.67 2.235 2 6-1.451 1.96-4 2v-1a15.64 15.64 0 0 1-2.5-9 9.17 9.17 0 0 0 4.5 2"/><path fill="#32100c" d="M103.5 95.5q2.363 3.071 3 7a21 21 0 0 0-4.5-3q-3.043 1.52-1.5 4-4.032-.502-7 2a20.7 20.7 0 0 0 1-5q8.47.524 2-4.5a25 25 0 0 1 7-.5"/><path fill="#605a58" d="M25.5 95.5v1q-.814.09-1 1a6.8 6.8 0 0 0 3 1.5q-3.71.329-5 3.5a141 141 0 0 1-12-1z"/><path fill="#190705" d="M42.5 95.5h9q2.919.802 3 4-2.468 1.468-4 4l-2-3q-.975 2.526-3 4-4.851-.758-2-5h-3q.255-1.983-1-3.5a4.93 4.93 0 0 1 3-.5"/><path fill="#b97159" d="m107.5 97.5 2 1q.71 2.11 3 2 .197 1.314-1 2-3.381-.936-5-4 .186-.91 1-1"/><path fill="#340d0d" d="M87.5 98.5a9.17 9.17 0 0 1-4.5-2 15.64 15.64 0 0 0 2.5 9q-4.515-2.991-10-3 .401 2.398-1 4v-3a18.5 18.5 0 0 1-6-.5q-2.023-1.158-2.5-3.5-2.125.867-2.5 3-1.1 1.812-1 4-1.495-3.758 0-8h6q-.175 5.115 5 4v-5q2.135 3.067 6 3v-5a25 25 0 0 1 7 .5q1.128 1.006 1 2.5"/><path fill="#5d1a18" d="m74.5 106.5-5 2q-1 0-1 1a22.8 22.8 0 0 0-4 5 22 22 0 0 1 3-9.5q-.666-2.643-1.5.5l-1-4q-.575.834-1.5 1 .375-2.133 2.5-3 .477 2.342 2.5 3.5a18.5 18.5 0 0 0 6 .5z"/><path fill="#150703" d="m106.5 102.5 3 2q2 3 5 5-.352.895-1.5 1a137 137 0 0 1-12.5-7q-1.543-2.48 1.5-4a21 21 0 0 1 4.5 3"/><path fill="#784839" d="M103.5 95.5q2.82-.406 4 2-.814.09-1 1 1.619 3.064 5 4 1.197-.686 1-2l2 1q1.185 1.352 3 2l10 8q-4.82-.465-9 1l-4-3q.09-.814 1-1 2.054 2.436 5 1.5-3.715-6.493-11-5.5l-3-2q-.637-3.929-3-7"/><path fill="#85604f" d="M121.5 95.5h3q3.223 1.854 7 3-1.201 2.313-1 5a20.7 20.7 0 0 0-5 1l-6-2q-1.374.064-2 1-1.815-.648-3-2 1.314.197 2-1-2.272-1.636-2.5-4 3.346 2.815 7.5 2.5-11.311-5.396 0-3.5"/><path fill="#9b9694" d="M28.5 94.5a5.73 5.73 0 0 1-3 1l-15 6q6.051.762 12 1l12-.5-14 10 1.5.5a189 189 0 0 0 13.5-8l-4 5a11.74 11.74 0 0 0-5 3l-2 4v-3a116 116 0 0 1-13 5 78 78 0 0 1-7-6.5 7.3 7.3 0 0 1 3-2l-1-1q11.829-4.963-2-5 1.595-1.782 4-1.5-.1-2.188 1-4 6.01-2.543 10-5 3.64-2.841 8-2 3.029.95 1 3"/><path fill="#64302c" d="m54.5 99.5 2 3a3.65 3.65 0 0 0 1.5-1 8.4 8.4 0 0 1 .5 4q.704 4.34-3 6h-2q1-6-5-5-2.519.322-3-2 2.025-1.474 3-4l2 3q1.532-2.532 4-4"/><path fill="#925348" d="m64.5 114.5-2 3q-.91-.186-1-1l2-8.5q-.105-1.148-1-1.5-.1-2.188 1-4 .925-.166 1.5-1l1 4q.834-3.143 1.5-.5a22 22 0 0 0-3 9.5"/><path fill="#b0a49c" d="M143.5 82.5q2.77 1.61 6 0v37q-5.878-4.186-13-6a20.7 20.7 0 0 0 1 5 11.1 11.1 0 0 0 3 4.5 11.4 11.4 0 0 1-2 2.5q-1.663-1.635-3 0l3 3.5q-4.923 1.125-9.5 5.5-.576 2.545.5 5l-7-8q-.664-7.878 8-9 .305-2.835-2-4.5 4.752-.873 1-3 1.129-1.006 1-2.5 1.612 1.593 3 0-3.737-1.561 0-2.5-4.681-1.96-8-5.5a20.7 20.7 0 0 1 5-1q-.201-2.687 1-5 4.721 2.625 10 2.5a4.46 4.46 0 0 0 2-1.5 26 26 0 0 0-5-3 7.1 7.1 0 0 1 5-1q.995-7.004-6-8l-5-2q2-.5 0-1v-2h2q1.349-1.458 3.5-2a27.2 27.2 0 0 0 5.5 2"/><path fill="#3d3331" d="M25.5 96.5a46 46 0 0 1 5.5 3q4.959-1.78 4.5 4v1a189 189 0 0 1-13.5 8l-1.5-.5 14-10-12 .5q1.29-3.171 5-3.5a6.8 6.8 0 0 1-3-1.5q.186-.91 1-1"/><path fill="#b3afad" d="M9.5 98.5q-1.1 1.812-1 4-2.405-.282-4 1.5 13.829.037 2 5l1 1a7.3 7.3 0 0 0-3 2 78 78 0 0 0 7 6.5q-5.745 2.25-12 2v-19a56 56 0 0 1 10-3"/><path fill="#1c0f10" d="M48.5 106.5q6-1 5 5-3.033 1.51-4 5-2.289-2.925-3-7a45.4 45.4 0 0 0-8 8q-1.557 3.029-4 1 1.258-.513 1-2 3.18-1.426 5-4.5-2.32-.5-4 1.5-1.593-1.387 0-3h1a8.4 8.4 0 0 0 4-.5q1.349-1.855 3.5-2.5 2.5 2.26 3.5-1"/><path fill="#5d271e" d="M100.5 103.5q-.423 1.917-2 3h-3v3a36.2 36.2 0 0 1 5 9h-2q-6.476-9.748-2 2-.465 1.857-1.5 0a28 28 0 0 1-1.5 4q-1.952-2.076 0-4.5a18 18 0 0 1-2-3.5 34.3 34.3 0 0 0 1-11h1q2.968-2.502 7-2"/><path fill="#150403" d="M98.5 106.5q3.49.247 6.5 2-1.665 4.362 1.5 8-4.471-1.347-8-6a5.58 5.58 0 0 0-3-1v-3z"/><path fill="#e1c0b4" d="M117.5 103.5q.626-.936 2-1l6 2q3.319 3.54 8 5.5-3.737.939 0 2.5-1.388 1.593-3 0a5.73 5.73 0 0 0-3-1z"/><path fill="#835e51" d="M35.5 103.5q3.715-.674 6 2l-4 5h-1q-.09-.814-1-1-2.484 3.777-4 0l4-5z"/><path fill="#48281d" d="M109.5 104.5q7.285-.993 11 5.5-2.946.936-5-1.5-.91.186-1 1-3-2-5-5"/><path fill="#554944" d="M31.5 109.5q1.516 3.777 4 0 .91.186 1 1-1.593 1.613 0 3 1.68-2 4-1.5-1.82 3.074-5 4.5-3.157-1.979-6 1-1.816-1.16 0-2.5l-3-2.5a11.74 11.74 0 0 1 5-3"/><path fill="#0b0303" d="M85.5 105.5v1q2.648 1.442 6 1a18.4 18.4 0 0 1-.5 6q-1.333-2.082-1.5.5 2.408 2.883-1 3.5v-1q-.285-5.786-6-5-2.315 1.854-3 5l-8 2a20.1 20.1 0 0 1-2-10l5-2q1.401-1.602 1-4 5.485.009 10 3"/><path fill="#2a1f1d" d="M49.5 116.5q-2.287 2.574-3 6a41 41 0 0 1-9-.5 13.9 13.9 0 0 0 3-4 2.43 2.43 0 0 0-2-.5 45.4 45.4 0 0 1 8-8q.711 4.075 3 7"/><path fill="#857d76" d="M149.5 119.5v5q-3.426-.712-6-3-2.522-2.262-6-3a20.7 20.7 0 0 1-1-5q7.122 1.814 13 6"/><path fill="#d39f7d" d="M98.5 118.5q0 2-2 2-4.476-11.748 2-2"/><path fill="#492720" d="M100.5 103.5a137 137 0 0 0 12.5 7q1.148-.105 1.5-1l4 3 6 4q-4.315 1.527-9-.5a46.6 46.6 0 0 0-6-5.5l-1 1.5a19.1 19.1 0 0 1 6 6q-1.779 2.118-4 3.5h-3q-.71-2.11-3-2-1.602-1.401-4-1a36.2 36.2 0 0 0-5-9 5.58 5.58 0 0 1 3 1q3.529 4.653 8 6-3.165-3.638-1.5-8a14.8 14.8 0 0 0-6.5-2q1.577-1.083 2-3"/><path fill="#1f0f0c" d="M69.5 108.5a20.1 20.1 0 0 0 2 10l8-2q.685-3.146 3-5v9q-4.264 1.397-8.5-1a4.93 4.93 0 0 0-.5 3v2l-6 1q-.383-7.821 1-16 0-1 1-1"/><path fill="#8e7366" d="M124.5 116.5q.814.09 1 1a196 196 0 0 0-11 3 7.5 7.5 0 0 0-2 3 3 3 0 0 1-2-2q2.221-1.382 4-3.5a19.1 19.1 0 0 0-6-6l1-1.5a46.6 46.6 0 0 1 6 5.5q4.685 2.027 9 .5"/><path fill="#341815" d="M89.5 104.5q1.064 1.356 3 1a34.3 34.3 0 0 1-1 11 18 18 0 0 0 2 3.5q-1.952 2.424 0 4.5.648 1.815 2 3-.356 1.936 1 3-.83 3.078-3 1v-4q-4.669.653-2-3a32.8 32.8 0 0 0-3-7q3.408-.617 1-3.5.167-2.582 1.5-.5.743-2.96.5-6-3.352.442-6-1 2.549-.04 4-2"/><path fill="#826658" d="M53.5 111.5h2a5.73 5.73 0 0 1-1 3q-1.427 2.128-1 5-1.459 2.459-4 4-1.936.356-3-1 .713-3.426 3-6 .967-3.49 4-5"/><path fill="#372622" d="M68.5 109.5q-1.383 8.179-1 16l6-1v4q-2.976-.175-5 2-2.153-2.17-3-5h-5q-.128-1.494 1-2.5l-3-1.5-4 6q-1.263-3.397 1-7-.686-1.197-2-1-.427-2.872 1-5a8.4 8.4 0 0 0 .5 4q4.048-9.667 3 0 1.224-1.984 3.5-2 .09.814 1 1a44 44 0 0 1 2-3 22.8 22.8 0 0 1 4-5"/><path fill="#47251e" d="M82.5 111.5q5.715-.786 6 5-.925.166-1.5 1-2.863-6.1-2.5 1 .324 2.826 2 5-1.8 1.188-4 0-4.18-1.465-9-1a4.93 4.93 0 0 1 .5-3q4.236 2.397 8.5 1z"/><path fill="#7f5d53" d="M98.5 118.5h2q2.398-.401 4 1-1.257.513-1 2-3.865-.067-6 3-1.083-.627-1.5-2a13 13 0 0 0-.5 5q-1.352-1.185-2-3a28 28 0 0 0 1.5-4q1.035 1.857 1.5 0 2 0 2-2"/><path fill="#a2938b" d="M118.5 112.5q4.18-1.465 9-1a5.73 5.73 0 0 1 3 1q.129 1.494-1 2.5 3.752 2.127-1 3 2.305 1.665 2 4.5-8.664 1.122-8 9-6.301-2.294-10-8a7.5 7.5 0 0 1 2-3 196 196 0 0 1 11-3q-.186-.91-1-1z"/><path fill="#81807f" d="m26.5 112.5 3 2.5q-1.816 1.34 0 2.5 2.843-2.979 6-1 .258 1.487-1 2-1.73 1.22 0 3-.533 1.533-2 2-.467-1.467-2-2a62 62 0 0 1-11 5l-1-1q2.873-2.356 3-6a6.54 6.54 0 0 1 3-3z"/><path fill="#5c5655" d="M38.5 117.5a2.43 2.43 0 0 1 2 .5 13.9 13.9 0 0 1-3 4 41 41 0 0 0 9 .5q1.064 1.356 3 1-1.65 1.657-2 4-2.918 7.029-8 13-1.647-1.651-.5-4a59.3 59.3 0 0 0 6.5-13 9.86 9.86 0 0 0-6 1q-3.02 5.767-8.5 9-2.493.168-3.5-2 2.178-2.16 3-5-.11-2.29 2-3 1.467-.467 2-2-1.73-1.78 0-3 2.443 2.029 4-1"/><path fill="#816156" d="m60.5 125.5-3 4a8.4 8.4 0 0 0-.5-4q-.625 1.884-2.5 2l4-6 3 1.5q-1.128 1.006-1 2.5"/><path fill="#614641" d="M88.5 116.5v1a32.8 32.8 0 0 1 3 7q-2.669 3.653 2 3v4l-2-3q-.91.186-1 1-2.58-4.413-7-2-1.401-1.602-1-4 2.2 1.188 4 0-1.676-2.174-2-5-.363-7.1 2.5-1 .575-.834 1.5-1"/><path fill="#afadae" d="M21.5 119.5q-.127 3.644-3 6l1 1a62 62 0 0 0 11-5q1.533.533 2 2-2.11.71-2 3a55 55 0 0 0-7 7q-.03-2.464 2-4-2.249-5.442-4 1a4.45 4.45 0 0 1-1.5-2q-4.558 3.904-10.5 5-2.942-.869-3-4l3-5.5q-.869-2.17 0-3.5a13.1 13.1 0 0 1 1 7q2.466-.32 4.5 1l1.5-1.5q-5.295-1.007-4-6.5 4.662.354 9-1"/><path fill="#bbbaba" d="M24.5 116.5a6.54 6.54 0 0 0-3 3q-4.338 1.354-9 1-1.295 5.493 4 6.5l-1.5 1.5q-2.034-1.32-4.5-1a13.1 13.1 0 0 0-1-7q-.869 1.33 0 3.5l-3 5.5q.058 3.131 3 4 5.942-1.096 10.5-5a4.45 4.45 0 0 0 1.5 2q1.751-6.442 4-1-2.03 1.536-2 4l-2 2a279 279 0 0 0-11 12.5q-5.073.464-8-4a4.93 4.93 0 0 0-3-.5v-23q6.255.25 12-2a116 116 0 0 0 13-5z"/><path fill="#301c19" d="M81.5 124.5v6q-3.74-.256-5.5 3a41 41 0 0 1-.5-9z"/><path fill="#4d3125" d="M103.5 121.5a21 21 0 0 0 2 7q-2.202 2.75-5 1a19.2 19.2 0 0 1-3-5q2.135-3.067 6-3"/><path fill="#a3958b" d="M104.5 119.5q2.29-.11 3 2l9 12q-2.243-.128-3 2l4 7a9.1 9.1 0 0 0-1 5 176 176 0 0 0-9-15 7.1 7.1 0 0 0-5-1 19.2 19.2 0 0 1-6-1q-1.356-1.064-1-3a13 13 0 0 1 .5-5q.417 1.373 1.5 2a19.2 19.2 0 0 0 3 5q2.798 1.75 5-1a21 21 0 0 1-2-7q-.257-1.487 1-2"/><path fill="#322520" d="M90.5 129.5q-.705 1.79-3 2-4.013-.046-4-4 4.42-2.413 7 2"/><path fill="#beb5b1" d="M60.5 125.5h5v6q-1.485 8.715-1 18h-1q.596-8.188-1.5-16-.834 3.143-1.5.5 1.186-1.651 0-2.5-1.439 3.933-5 6a54 54 0 0 0 2-8z"/><path fill="#bdb5af" d="M137.5 118.5q3.478.738 6 3-1.314-.197-2 1a18.5 18.5 0 0 0 5 4q-2.203 4.94 2 8.5a39 39 0 0 0-4.5 4.5l-1-1q-3.64 3.369-8 2 .789 2.59-.5 5a16.64 16.64 0 0 1-5-6q-1.076-2.455-.5-5 4.577-4.375 9.5-5.5l-3-3.5q1.337-1.635 3 0a11.4 11.4 0 0 0 2-2.5 11.1 11.1 0 0 1-3-4.5"/><path fill="#878383" d="M39.5 140.5q-3.216 3.933-4 9h-3q.67-4.724 4-8 1.247-2.96.5-6-5.154.892-8.5 5-1.816-1.16 0-2.5-4.292.045-7-2.5l2-2a55 55 0 0 1 7-7q-.822 2.84-3 5 1.007 2.168 3.5 2 5.48-3.233 8.5-9a9.86 9.86 0 0 1 6-1 59.3 59.3 0 0 1-6.5 13q-1.147 2.349.5 4"/><path fill="#89827f" d="M53.5 119.5q1.314-.197 2 1-2.263 3.603-1 7 1.875-.116 2.5-2a8.4 8.4 0 0 1 .5 4 54 54 0 0 1-2 8l-3 12h-8a117.3 117.3 0 0 1 8-23q-2.687-.201-5 1 .35-2.343 2-4 2.541-1.541 4-4"/><path fill="#5e5752" d="M102.5 131.5a7.1 7.1 0 0 1 5 1 176 176 0 0 1 9 15v2h-2a48.2 48.2 0 0 0-6-10q-.853-5.744-6-8"/><path fill="#665b57" d="M107.5 121.5h3a3 3 0 0 0 2 2q3.699 5.706 10 8l7 8a16.64 16.64 0 0 0 5 6l2 4h-3q-10.39-5.886-17-16z"/><path fill="#675f5b" d="M73.5 122.5q4.82-.465 9 1-1 0-1 1h-6a41 41 0 0 0 .5 9q1.76-3.256 5.5-3l-1 2q6.134 6.366-1 12a49.9 49.9 0 0 1-14 1v-20q.847 2.83 3 5 2.024-2.175 5-2v-6"/><path fill="#cfcecd" d="M63.5 149.5h-11l3-12q3.561-2.067 5-6 1.186.849 0 2.5.666 2.643 1.5-.5 2.096 7.812 1.5 16"/><path fill="#b9b6b5" d="M44.5 149.5h-9q.784-5.067 4-9 5.082-5.971 8-13 2.313-1.201 5-1a117.3 117.3 0 0 0-8 23"/><path fill="#c6bfb9" d="M143.5 121.5q2.574 2.288 6 3v25h-13l-2-4q1.289-2.41.5-5 4.36 1.369 8-2l1 1a39 39 0 0 1 4.5-4.5q-4.203-3.56-2-8.5a18.5 18.5 0 0 1-5-4q.686-1.197 2-1"/><path fill="#b7b5b5" d="M21.5 135.5q2.708 2.545 7 2.5-1.816 1.34 0 2.5 3.346-4.108 8.5-5 .747 3.04-.5 6-3.33 3.276-4 8h-33v-6a4.93 4.93 0 0 1 3 .5q2.927 4.464 8 4a279 279 0 0 1 11-12.5"/><path fill="#bab2ae" d="M93.5 139.5a43.3 43.3 0 0 1 3 10h-10l-2-17q9.406-2.554 9 7"/><path fill="#b9b2ac" d="M116.5 133.5q6.61 10.114 17 16h-17v-2a9.1 9.1 0 0 1 1-5l-4-7q.757-2.128 3-2"/><path fill="#837b77" d="M82.5 123.5q-.401 2.398 1 4-.013 3.954 4 4 2.295-.21 3-2 .09-.814 1-1l2 3q2.17 2.078 3-1a19.2 19.2 0 0 0 6 1q5.147 2.256 6 8-1.762.329-3-1a12.4 12.4 0 0 0-4.5-5l.5 8q-4.52.59-8-2 .406-9.554-9-7l2 17h-22q-.485-9.285 1-18v14a49.9 49.9 0 0 0 14-1q7.134-5.634 1-12 .544-1.025 1-2v-6q0-1 1-1"/><path fill="#a69e99" d="M108.5 139.5a48.2 48.2 0 0 1 6 10h-18a43.3 43.3 0 0 0-3-10q3.48 2.59 8 2a114 114 0 0 0-.5-8 12.4 12.4 0 0 1 4.5 5q1.238 1.329 3 1"/></svg>
